<?xml version="1.0" encoding="UTF-8" standalone="no"?>
<!-- Generator: Adobe Illustrator 16.0.0, SVG Export Plug-In . SVG Version: 6.00 Build 0)  -->

<svg
   xmlns:dc="http://purl.org/dc/elements/1.1/"
   xmlns:cc="http://creativecommons.org/ns#"
   xmlns:rdf="http://www.w3.org/1999/02/22-rdf-syntax-ns#"
   xmlns:svg="http://www.w3.org/2000/svg"
   xmlns="http://www.w3.org/2000/svg"
   xmlns:sodipodi="http://sodipodi.sourceforge.net/DTD/sodipodi-0.dtd"
   xmlns:inkscape="http://www.inkscape.org/namespaces/inkscape"
   version="1.1"
   id="Layer_1"
   x="0px"
   y="0px"
   width="1024"
   height="1024"
   viewBox="0 0 1024 1024"
   xml:space="preserve"
   inkscape:version="0.48.5 r10040"
   sodipodi:docname="code.svg"
   inkscape:export-filename="/Users/ovilia/Workshop/zhujianer/git-repo/_design/icon/vector/code.png"
   inkscape:export-xdpi="11.25"
   inkscape:export-ydpi="11.25"><metadata
     id="metadata3394"><rdf:RDF><cc:Work
         rdf:about=""><dc:format>image/svg+xml</dc:format><dc:type
           rdf:resource="http://purl.org/dc/dcmitype/StillImage" /><dc:title></dc:title></cc:Work></rdf:RDF></metadata><defs
     id="defs3392" /><sodipodi:namedview
     pagecolor="#ffffff"
     bordercolor="#666666"
     borderopacity="1"
     objecttolerance="10"
     gridtolerance="10"
     guidetolerance="10"
     inkscape:pageopacity="0"
     inkscape:pageshadow="2"
     inkscape:window-width="1280"
     inkscape:window-height="697"
     id="namedview3390"
     showgrid="true"
     inkscape:zoom="0.47949219"
     inkscape:cx="512"
     inkscape:cy="512"
     inkscape:window-x="0"
     inkscape:window-y="0"
     inkscape:window-maximized="1"
     inkscape:current-layer="Layer_1"
     showguides="true"
     inkscape:guide-bbox="true"><inkscape:grid
       type="xygrid"
       id="grid3621"
       empspacing="4"
       visible="true"
       enabled="true"
       snapvisiblegridlinesonly="true"
       spacingx="32px"
       spacingy="32px" /><sodipodi:guide
       orientation="0,1"
       position="320,832"
       id="guide4489" /><sodipodi:guide
       orientation="0,1"
       position="512,192"
       id="guide4491" /><sodipodi:guide
       orientation="1,0"
       position="224,800"
       id="guide4493" /><sodipodi:guide
       orientation="1,0"
       position="800,480"
       id="guide4495" /></sodipodi:namedview><g
     id="g3360"
     transform="translate(0,984.49202)"
     style="fill:#f3f3f3;fill-opacity:1" /><g
     id="g3362"
     transform="translate(0,984.49202)"
     style="fill:#f3f3f3;fill-opacity:1" /><g
     id="g3364"
     transform="translate(0,984.49202)"
     style="fill:#f3f3f3;fill-opacity:1" /><g
     id="g3366"
     transform="translate(0,984.49202)"
     style="fill:#f3f3f3;fill-opacity:1" /><g
     id="g3368"
     transform="translate(0,984.49202)"
     style="fill:#f3f3f3;fill-opacity:1" /><g
     id="g3370"
     transform="translate(0,984.49202)"
     style="fill:#f3f3f3;fill-opacity:1" /><g
     id="g3372"
     transform="translate(0,984.49202)"
     style="fill:#f3f3f3;fill-opacity:1" /><g
     id="g3374"
     transform="translate(0,984.49202)"
     style="fill:#f3f3f3;fill-opacity:1" /><g
     id="g3376"
     transform="translate(0,984.49202)"
     style="fill:#f3f3f3;fill-opacity:1" /><g
     id="g3378"
     transform="translate(0,984.49202)"
     style="fill:#f3f3f3;fill-opacity:1" /><g
     id="g3380"
     transform="translate(0,984.49202)"
     style="fill:#f3f3f3;fill-opacity:1" /><g
     id="g3382"
     transform="translate(0,984.49202)"
     style="fill:#f3f3f3;fill-opacity:1" /><g
     id="g3384"
     transform="translate(0,984.49202)"
     style="fill:#f3f3f3;fill-opacity:1" /><g
     id="g3386"
     transform="translate(0,984.49202)"
     style="fill:#f3f3f3;fill-opacity:1" /><g
     id="g3388"
     transform="translate(0,984.49202)"
     style="fill:#f3f3f3;fill-opacity:1" /><path
     style="fill:#f3f3f3;fill-opacity:1;fill-rule:nonzero;stroke:none"
     d="M 512 32 C 246.90332 32 32 246.90332 32 512 C 32 777.09668 246.90332 992 512 992 C 777.09668 992 992 777.09668 992 512 C 992 246.90332 777.09668 32 512 32 z M 512 64 C 759.42357 64 960 264.57643 960 512 C 960 759.42357 759.42357 960 512 960 C 264.57643 960 64 759.42357 64 512 C 64 264.57643 264.57643 64 512 64 z "
     id="path3628" /><path
     inkscape:connector-curvature="0"
     d="m 281.93831,390.56598 c 22.01359,33.28521 41.3417,72.84277 44.38959,79.64478 0.87347,1.96068 2.24874,6.58829 3.79127,12.24732 10.73268,-15.16512 23.82561,-27.70051 39.47394,-36.89994 22.32953,-13.12082 47.99502,-18.52896 75.70482,-17.22802 -6.6905,-10.62118 -12.77699,-21.55827 -15.70408,-30.07007 -7.51752,-21.82776 -34.76271,-111.95431 -50.6991,-150.43396 -15.92709,-38.47963 -76.59688,-11.09506 -111.85208,8.94855 -35.25521,20.04361 -37.23448,44.74269 -33.64763,51.5447 3.57756,6.80199 26.52968,48.96142 48.54327,82.24664 z"
     id="path5325"
     style="fill:#f3f3f3;fill-opacity:1" /><path
     inkscape:connector-curvature="0"
     d="m 419.1235,518.58176 c 46.88922,-19.3281 56.91568,4.11651 56.91568,4.11651 14.85848,-13.78057 4.47892,-30.07006 4.47892,-30.07006 0,0 3.75411,-6.97856 -2.32309,-14.14297 -3.71694,-4.36741 -15.6948,-20.22017 -26.17656,-36.87206 -27.70981,-1.30094 -53.37531,4.10721 -75.70483,17.22802 -15.64833,9.19943 -28.74126,21.72552 -39.47392,36.89995 3.81915,13.985 8.71623,34.47464 9.98927,38.0429 1.79343,5.00858 6.4396,11.81058 10.74197,12.70265 4.29306,0.89207 6.80199,5.00858 6.80199,5.00858 5.54754,11.27163 22.90567,11.98714 22.90567,11.98714 0,0 -15.05362,-25.57257 31.8449,-44.90066 z"
     id="path5327"
     style="fill:#f3f3f3;fill-opacity:1" /><path
     style="fill:#f3f3f3;fill-opacity:1"
     d="m 768.4375,425.78125 c -0.46067,0.0342 -0.33187,1.39485 0.71875,4.59375 0.058,0.17682 0.0996,0.35495 0.15625,0.53125 l 2.9375,0 c -1.70551,-3.09991 -3.22803,-5.16834 -3.8125,-5.125 z M 454.09375,524.5625 c -9.55659,0.0681 -21.19093,2.43471 -33.875,8.09375 C 390.14869,546.08371 392.3125,564.5 392.3125,564.5 l 51,150.40625 c 1.79344,4.83202 10.03125,7.15625 10.03125,7.15625 47.79058,13.78057 86.74307,62.07625 91.9375,69.59375 4.54513,6.57783 7.99167,5.19504 8.78125,4.75 l 0,-0.5 L 498.5,671.46875 c -4.25589,-0.9757 -8.60084,-4.67376 -11.15625,-10.15625 -3.69835,-7.94497 -2.22912,-16.43531 3.28125,-19 5.51037,-2.56468 12.98915,1.77379 16.6875,9.71875 2.78771,5.98427 2.62974,12.27797 0,16.125 l 53.125,120.0625 c 4.92263,11.12514 4.83901,3.56868 3.90625,-2.8125 -7.57912,-47.27324 -8.48381,-57.49454 -4.90625,-81.125 3.57755,-23.62117 0,-25.78125 0,-25.78125 -36.50966,-50.11367 -80.84375,-144.75 -80.84375,-144.75 -3.32435,-5.53534 -12.21295,-9.27503 -24.5,-9.1875 z"
     id="path5329"
     inkscape:connector-curvature="0"
     sodipodi:nodetypes="scccssccccsccccsccsccccs" /><path
     inkscape:connector-curvature="0"
     d="m 778,630 c -14.36598,-11.23446 -33.59187,-16.63332 -48.91496,-26.57614 -39.6133,-25.70266 11.69908,-49.37958 28.68551,-64.69339 28.84346,-26 36.41674,-55.95856 24.47606,-92.33813 -3.73553,-11.38313 -11.82918,-23.38886 -8.09365,-12.01501 20.41532,62.22161 -44.46391,91.95714 -77.4146,126.74772 -12.13582,12.81416 -10.4632,26.70624 2.14652,39.49251 24.39244,24.73626 97.77417,45.61618 52.2881,84.06795 -31.88208,26.94784 -81.36387,29.36384 -116.70271,52.12083 -4.77627,3.07577 -5.33381,11.34596 -0.52967,14.70979 34.70696,24.27165 82.75774,18.42675 116.9536,40.46821 C 646,804 533.3387,785.62323 565.96248,804 640.2084,813.32023 678,815.84148 773.01001,804.0179 c 7.34096,-1.55182 7.47106,-10.92781 2.64832,-15.84346 C 743.97139,755.83708 697.57467,762.73201 659.58751,745.06724 707.91705,724.71697 840.50037,678.93354 777.93496,630 z"
     id="path5329-2"
     style="fill:#d0648a;fill-opacity:1"
     sodipodi:nodetypes="ccccccccscccccccc" /></svg>