<?xml version="1.0" encoding="UTF-8" standalone="no"?>
<!-- Generator: Adobe Illustrator 16.0.0, SVG Export Plug-In . SVG Version: 6.00 Build 0)  -->

<svg
   xmlns:dc="http://purl.org/dc/elements/1.1/"
   xmlns:cc="http://creativecommons.org/ns#"
   xmlns:rdf="http://www.w3.org/1999/02/22-rdf-syntax-ns#"
   xmlns:svg="http://www.w3.org/2000/svg"
   xmlns="http://www.w3.org/2000/svg"
   xmlns:sodipodi="http://sodipodi.sourceforge.net/DTD/sodipodi-0.dtd"
   xmlns:inkscape="http://www.inkscape.org/namespaces/inkscape"
   version="1.1"
   id="Layer_1"
   x="0px"
   y="0px"
   width="1024"
   height="1024"
   viewBox="0 0 1024 1024"
   xml:space="preserve"
   inkscape:version="0.48.5 r10040"
   sodipodi:docname="design.svg"><metadata
     id="metadata3394"><rdf:RDF><cc:Work
         rdf:about=""><dc:format>image/svg+xml</dc:format><dc:type
           rdf:resource="http://purl.org/dc/dcmitype/StillImage" /><dc:title></dc:title></cc:Work></rdf:RDF></metadata><defs
     id="defs3392" /><sodipodi:namedview
     pagecolor="#ffffff"
     bordercolor="#666666"
     borderopacity="1"
     objecttolerance="10"
     gridtolerance="10"
     guidetolerance="10"
     inkscape:pageopacity="0"
     inkscape:pageshadow="2"
     inkscape:window-width="1280"
     inkscape:window-height="697"
     id="namedview3390"
     showgrid="true"
     inkscape:zoom="0.47949219"
     inkscape:cx="528.94366"
     inkscape:cy="512"
     inkscape:window-x="0"
     inkscape:window-y="0"
     inkscape:window-maximized="1"
     inkscape:current-layer="Layer_1"><inkscape:grid
       type="xygrid"
       id="grid3621"
       empspacing="5"
       visible="true"
       enabled="true"
       snapvisiblegridlinesonly="true"
       spacingx="32px"
       spacingy="32px" /></sodipodi:namedview><path
     inkscape:connector-curvature="0"
     id="path3354"
     d="M 453.72241,721.1282 585.92127,797.45367 858.97031,324.51819 726.77145,248.19311 453.72241,721.1282 z m 46.43549,-33.77869 28.14743,16.25029 4.25422,-7.3676 -28.14744,-16.25224 10.76433,-18.64334 28.14744,16.25028 4.24027,-7.34429 -28.14743,-16.25028 9.60156,-16.63101 28.14744,16.25223 4.24724,-7.35789 -28.14742,-16.25029 9.53886,-16.52223 58.11591,33.55337 6.81646,-11.80603 -58.11585,-33.55337 11.62072,-20.12736 28.14742,16.25029 4.25419,-7.3676 -28.1474,-16.25223 10.75041,-18.62004 28.14739,16.25223 4.24726,-7.35789 -28.14742,-16.25029 9.60156,-16.631 28.14742,16.25223 4.25421,-7.36955 -28.14743,-16.25029 9.53889,-16.52223 58.11586,33.55337 6.80955,-11.79437 -58.11591,-33.55337 13.7374,-23.79465 28.14743,16.25223 4.2542,-7.36954 -28.14741,-16.25029 10.74342,-18.60839 28.14743,16.25029 4.25421,-7.3676 -28.14742,-16.25029 9.60156,-16.63139 28.14742,16.25068 4.24724,-7.35615 -28.14741,-16.25087 9.53888,-16.52184 58.11588,33.55318 L 732,420 l -58.1159,-33.55317 10.53456,-18.24652 35.79331,20.66541 4.24724,-7.35653 -35.79332,-20.66521 10.75739,-18.63229 35.79329,20.66523 4.24726,-7.35654 -35.79332,-20.66521 9.60851,-16.64246 35.79332,20.66521 4.24723,-7.35633 -35.79329,-20.66522 17.78273,-30.80058 91.78665,52.99293 -249.71008,432.51041 -91.78667,-52.99312 14.55899,-25.2165 z"
     style="fill:#f3f3f3;fill-opacity:1" /><g
     id="g3360"
     transform="translate(0,984.49202)"
     style="fill:#f3f3f3;fill-opacity:1" /><g
     id="g3362"
     transform="translate(0,984.49202)"
     style="fill:#f3f3f3;fill-opacity:1" /><g
     id="g3364"
     transform="translate(0,984.49202)"
     style="fill:#f3f3f3;fill-opacity:1" /><g
     id="g3366"
     transform="translate(0,984.49202)"
     style="fill:#f3f3f3;fill-opacity:1" /><g
     id="g3368"
     transform="translate(0,984.49202)"
     style="fill:#f3f3f3;fill-opacity:1" /><g
     id="g3370"
     transform="translate(0,984.49202)"
     style="fill:#f3f3f3;fill-opacity:1" /><g
     id="g3372"
     transform="translate(0,984.49202)"
     style="fill:#f3f3f3;fill-opacity:1" /><g
     id="g3374"
     transform="translate(0,984.49202)"
     style="fill:#f3f3f3;fill-opacity:1" /><g
     id="g3376"
     transform="translate(0,984.49202)"
     style="fill:#f3f3f3;fill-opacity:1" /><g
     id="g3378"
     transform="translate(0,984.49202)"
     style="fill:#f3f3f3;fill-opacity:1" /><g
     id="g3380"
     transform="translate(0,984.49202)"
     style="fill:#f3f3f3;fill-opacity:1" /><g
     id="g3382"
     transform="translate(0,984.49202)"
     style="fill:#f3f3f3;fill-opacity:1" /><g
     id="g3384"
     transform="translate(0,984.49202)"
     style="fill:#f3f3f3;fill-opacity:1" /><g
     id="g3386"
     transform="translate(0,984.49202)"
     style="fill:#f3f3f3;fill-opacity:1" /><g
     id="g3388"
     transform="translate(0,984.49202)"
     style="fill:#f3f3f3;fill-opacity:1" /><g
     style="fill:#f3f3f3;fill-opacity:1"
     id="g3544"
     transform="matrix(16.821855,-9.7121023,9.7121023,16.821855,105.37549,326.70651)"><path
       id="path3546"
       d="m 16.882,25.177 0.183,-2.197 -2.872,-7.808 h 1.593 v 1.259 h 0.777 v -3.295 h -0.777 v 1.26 H 13.908 L 12.047,9.337 C 12.246,8.889 12.359,8.397 12.359,7.876 12.359,6.038 10.991,4.541 9.222,4.3 V 0 H 8.249 V 4.3 C 6.48,4.539 5.111,6.038 5.111,7.876 c 0,0.735 0.221,1.417 0.599,1.988 L 4.043,14.395 H 2.089 v -1.26 H 1.311 V 16.43 H 2.089 V 15.171 H 3.758 L 0.886,22.979 1.069,25.176 0,29.935 l 2.403,-4.21 1.727,-1.618 4.845,-12.4 4.846,12.4 1.726,1.618 2.403,4.21 -1.068,-4.758 z M 8.792,10.388 c -1.383,0 -2.506,-1.12 -2.506,-2.506 0,-1.382 1.123,-2.503 2.506,-2.503 1.384,0 2.506,1.121 2.506,2.503 0,1.386 -1.122,2.506 -2.506,2.506 z"
       style="fill:#f3f3f3;fill-opacity:1;fill-rule:evenodd"
       inkscape:connector-curvature="0" /></g><g
     style="fill:#d0648a;fill-opacity:1"
     id="g3548"
     transform="matrix(16.821855,-9.7121023,9.7121023,16.821855,105.37549,326.70651)"><circle
       d="m 10.026,7.9180002 c 0,0.6815194 -0.5524808,1.234 -1.2340002,1.234 -0.6815193,0 -1.234,-0.5524806 -1.234,-1.234 0,-0.6815193 0.5524807,-1.2339999 1.234,-1.2339999 0.6815194,0 1.2340002,0.5524806 1.2340002,1.2339999 z"
       id="circle3550"
       r="1.234"
       cy="7.9180002"
       cx="8.7919998"
       style="fill:#d0648a;fill-opacity:1;fill-rule:evenodd"
       sodipodi:cx="8.7919998"
       sodipodi:cy="7.9180002"
       sodipodi:rx="1.234"
       sodipodi:ry="1.234" /></g><path
     style="fill:#f3f3f3;fill-opacity:1;fill-rule:nonzero;stroke:none"
     d="M 512 32 C 246.90332 32 32 246.90332 32 512 C 32 777.09668 246.90332 992 512 992 C 777.09668 992 992 777.09668 992 512 C 992 246.90332 777.09668 32 512 32 z M 512 64 C 759.42357 64 960 264.57643 960 512 C 960 759.42357 759.42357 960 512 960 C 264.57643 960 64 759.42357 64 512 C 64 264.57643 264.57643 64 512 64 z "
     id="path3628" /></svg>