<?xml version="1.0" encoding="UTF-8" standalone="no"?>
<!-- Generator: Adobe Illustrator 16.0.0, SVG Export Plug-In . SVG Version: 6.00 Build 0)  -->

<svg
   xmlns:dc="http://purl.org/dc/elements/1.1/"
   xmlns:cc="http://creativecommons.org/ns#"
   xmlns:rdf="http://www.w3.org/1999/02/22-rdf-syntax-ns#"
   xmlns:svg="http://www.w3.org/2000/svg"
   xmlns="http://www.w3.org/2000/svg"
   xmlns:sodipodi="http://sodipodi.sourceforge.net/DTD/sodipodi-0.dtd"
   xmlns:inkscape="http://www.inkscape.org/namespaces/inkscape"
   version="1.1"
   id="Layer_1"
   x="0px"
   y="0px"
   width="1024"
   height="1024"
   viewBox="0 0 1024 1024"
   xml:space="preserve"
   inkscape:version="0.48.5 r10040"
   sodipodi:docname="idea.svg"
   inkscape:export-filename="/Users/ovilia/Workshop/zhujianer/git-repo/_design/icon/vector/idea-primary.png"
   inkscape:export-xdpi="11.25"
   inkscape:export-ydpi="11.25"><metadata
     id="metadata3394"><rdf:RDF><cc:Work
         rdf:about=""><dc:format>image/svg+xml</dc:format><dc:type
           rdf:resource="http://purl.org/dc/dcmitype/StillImage" /><dc:title /></cc:Work></rdf:RDF></metadata><defs
     id="defs3392" /><sodipodi:namedview
     pagecolor="#ffffff"
     bordercolor="#666666"
     borderopacity="1"
     objecttolerance="10"
     gridtolerance="10"
     guidetolerance="10"
     inkscape:pageopacity="0"
     inkscape:pageshadow="2"
     inkscape:window-width="1280"
     inkscape:window-height="697"
     id="namedview3390"
     showgrid="true"
     inkscape:zoom="0.47949219"
     inkscape:cx="124.34896"
     inkscape:cy="512"
     inkscape:window-x="0"
     inkscape:window-y="0"
     inkscape:window-maximized="1"
     inkscape:current-layer="Layer_1"
     showguides="true"
     inkscape:guide-bbox="true"><inkscape:grid
       type="xygrid"
       id="grid3621"
       empspacing="4"
       visible="true"
       enabled="true"
       snapvisiblegridlinesonly="true"
       spacingx="32px"
       spacingy="32px" /><sodipodi:guide
       orientation="0,1"
       position="320,832"
       id="guide4489" /><sodipodi:guide
       orientation="0,1"
       position="512,192"
       id="guide4491" /><sodipodi:guide
       orientation="1,0"
       position="224,800"
       id="guide4493" /><sodipodi:guide
       orientation="1,0"
       position="800,480"
       id="guide4495" /></sodipodi:namedview><g
     id="g3360"
     transform="translate(0,984.49202)"
     style="fill:#f3f3f3;fill-opacity:1" /><g
     id="g3362"
     transform="translate(0,984.49202)"
     style="fill:#f3f3f3;fill-opacity:1" /><g
     id="g3364"
     transform="translate(0,984.49202)"
     style="fill:#f3f3f3;fill-opacity:1" /><g
     id="g3366"
     transform="translate(0,984.49202)"
     style="fill:#f3f3f3;fill-opacity:1" /><g
     id="g3368"
     transform="translate(0,984.49202)"
     style="fill:#f3f3f3;fill-opacity:1" /><g
     id="g3370"
     transform="translate(0,984.49202)"
     style="fill:#f3f3f3;fill-opacity:1" /><g
     id="g3372"
     transform="translate(0,984.49202)"
     style="fill:#f3f3f3;fill-opacity:1" /><g
     id="g3374"
     transform="translate(0,984.49202)"
     style="fill:#f3f3f3;fill-opacity:1" /><g
     id="g3376"
     transform="translate(0,984.49202)"
     style="fill:#f3f3f3;fill-opacity:1" /><g
     id="g3378"
     transform="translate(0,984.49202)"
     style="fill:#f3f3f3;fill-opacity:1" /><g
     id="g3380"
     transform="translate(0,984.49202)"
     style="fill:#f3f3f3;fill-opacity:1" /><g
     id="g3382"
     transform="translate(0,984.49202)"
     style="fill:#f3f3f3;fill-opacity:1" /><g
     id="g3384"
     transform="translate(0,984.49202)"
     style="fill:#f3f3f3;fill-opacity:1" /><g
     id="g3386"
     transform="translate(0,984.49202)"
     style="fill:#f3f3f3;fill-opacity:1" /><g
     id="g3388"
     transform="translate(0,984.49202)"
     style="fill:#f3f3f3;fill-opacity:1" /><path
     style="fill:#f3f3f3;fill-opacity:1;fill-rule:nonzero;stroke:none"
     d="M 512 32 C 246.90332 32 32 246.90332 32 512 C 32 777.09668 246.90332 992 512 992 C 777.09668 992 992 777.09668 992 512 C 992 246.90332 777.09668 32 512 32 z M 512 64 C 759.42357 64 960 264.57643 960 512 C 960 759.42357 759.42357 960 512 960 C 264.57643 960 64 759.42357 64 512 C 64 264.57643 264.57643 64 512 64 z "
     id="path3628" /><path
     style="fill:#f3f3f3;fill-opacity:1"
     id="path4568"
     d="M 467.33944,792.94401 C 470.28247,814.96239 489.18828,832 512,832 c 22.81172,0 41.71753,-17.03761 44.66056,-39.05599 22.01838,-2.94304 39.056,-21.84884 39.056,-44.66056 V 655.9969 c 59.72122,-31.45529 96.64672,-92.01464 96.64672,-158.99748 0,-99.4522 -80.91108,-180.36328 -180.36648,-180.36328 -99.4554,0 -180.36328,80.90788 -180.36328,180.36008 0,66.98284 36.9287,127.54539 96.64672,158.99748 v 92.28655 c 0.003,22.81492 17.04082,41.72072 39.0592,44.66376 z M 512,368.08807 c 71.0807,0 128.91134,57.82745 128.91134,128.90815 0,48.67524 -27.49178,92.66082 -71.74288,114.78797 l -21.36899,10.6845 -3.53805,1.76902 v 3.9539 36.37528 h -64.52284 v -36.37528 -3.9539 l -3.53805,-1.76902 -21.36899,-10.6845 c -44.25429,-22.12715 -71.74288,-66.10953 -71.74288,-114.78797 0,-71.0807 57.83064,-128.90815 128.91134,-128.90815 z m 32.26142,347.93395 v 25.86352 h -64.52284 v -25.86352 h 64.52284 z"
     inkscape:connector-curvature="0" /><path
     style="fill:#f3f3f3;fill-opacity:1"
     id="path4570"
     d="m 486.27403,226.38412 v 57.98739 c 0,14.18735 11.54182,25.72597 25.72597,25.72597 14.18415,0 25.72597,-11.54182 25.72597,-25.72597 v -57.98739 c 0,-14.18735 -11.54182,-25.72597 -25.72597,-25.72597 -14.18415,0 -25.72597,11.53862 -25.72597,25.72597 z"
     inkscape:connector-curvature="0" /><path
     style="fill:#f3f3f3;fill-opacity:1"
     id="path4572"
     d="m 708.94984,413.00775 50.28752,-29.01449 c 5.96284,-3.45487 10.21745,-9.00825 11.99287,-15.64287 1.77861,-6.64423 0.85731,-13.58275 -2.59435,-19.5328 -4.50413,-7.91421 -13.04213,-12.85979 -22.26151,-12.85979 h 0 c -4.48813,0 -8.92827,1.18042 -12.83739,3.41648 l -50.27472,29.04648 c -5.95325,3.42608 -10.21745,8.98266 -11.99287,15.63968 -1.77222,6.64742 -0.84772,13.57635 2.60395,19.5104 4.50092,7.90141 13.03892,12.84379 22.2519,12.84379 4.46894,-0.003 8.90589,-1.18041 12.8246,-3.40688 z"
     inkscape:connector-curvature="0" /><path
     style="fill:#f3f3f3;fill-opacity:1"
     id="path4574"
     d="m 593.4581,319.53119 c 1.77862,6.63782 6.03962,12.1848 11.99607,15.61408 3.89312,2.25846 8.34606,3.45807 12.85658,3.45807 9.18419,0 17.72219,-4.93598 22.2743,-12.88218 l 28.9857,-50.23313 c 3.44207,-5.91167 4.36657,-12.84059 2.59115,-19.48802 -1.77542,-6.65701 -6.03962,-12.21039 -12.00247,-15.64287 -3.91551,-2.22967 -8.33646,-3.40048 -12.8118,-3.40048 h 0 c -9.19698,0 -17.74458,4.90719 -22.30948,12.8054 l -28.9953,50.25233 c -3.43887,5.94045 -4.36017,12.87897 -2.58475,19.5168 z"
     inkscape:connector-curvature="0" /><path
     style="fill:#f3f3f3;fill-opacity:1"
     id="path4576"
     d="m 277.66401,658.03463 c 4.53612,0 8.98906,-1.20601 12.86939,-3.48686 l 50.20434,-28.9665 c 5.95325,-3.42608 10.21425,-8.96986 11.99287,-15.60769 1.77861,-6.64102 0.85732,-13.57635 -2.59435,-19.5296 -4.60329,-7.93979 -13.14769,-12.87258 -22.30309,-12.87258 h 0 c -4.51692,0 -8.96666,1.21241 -12.86618,3.50606 l -50.20435,28.9665 c -12.25838,7.08568 -16.4778,22.84051 -9.40811,35.12449 4.60649,7.93979 13.15089,12.86618 22.30948,12.86618 z"
     inkscape:connector-curvature="0" /><path
     style="fill:#f3f3f3;fill-opacity:1"
     id="path4578"
     d="m 241.38471,522.72538 h 57.99059 c 14.18735,0 25.72596,-11.54181 25.72596,-25.72596 0,-14.18415 -11.54181,-25.72597 -25.72596,-25.72597 h -57.99059 c -14.18735,0 -25.72917,11.54182 -25.72917,25.72597 0,14.18415 11.54182,25.72596 25.72917,25.72596 z"
     inkscape:connector-curvature="0" /><path
     style="fill:#f3f3f3;fill-opacity:1"
     id="path4580"
     d="m 340.76013,368.44635 -50.26832,-29.05927 c -3.88033,-2.25846 -8.31727,-3.45807 -12.815,-3.45807 h 0 c -9.18739,0 -17.74138,4.94558 -22.31908,12.90137 -7.05689,12.26159 -2.84387,28.02922 9.38572,35.15008 l 50.30991,29.00809 c 3.89632,2.26166 8.34926,3.46127 12.85978,3.46127 9.1618,0 17.7062,-4.92639 22.29989,-12.85659 3.45167,-5.95644 4.37297,-12.89497 2.58795,-19.53279 -1.78501,-6.64103 -6.05881,-12.18481 -12.04085,-15.61409 z"
     inkscape:connector-curvature="0" /><path
     style="fill:#f3f3f3;fill-opacity:1"
     id="path4582"
     d="m 376.62997,236.90227 0,0 c -4.50412,0 -8.94107,1.20281 -12.82779,3.47407 -5.91806,3.40688 -10.17906,8.95386 -11.96408,15.60128 -1.78501,6.64422 -0.87651,13.57315 2.55596,19.5136 l 28.95691,50.13397 c 4.59689,7.9366 13.14129,12.86298 22.30309,12.86298 4.49453,0 8.92827,-1.18361 12.8182,-3.41967 5.98204,-3.45167 10.24944,-8.99865 12.03125,-15.62688 1.78182,-6.63143 0.86372,-13.57315 -2.58155,-19.54559 l -28.91852,-50.13397 c -4.66407,-7.9462 -13.22766,-12.85979 -22.37347,-12.85979 z"
     inkscape:connector-curvature="0" /><path
     style="fill:#f3f3f3;fill-opacity:1"
     id="path4584"
     d="m 746.37117,658.03463 c 9.18419,0 17.719,-4.93598 22.2743,-12.87898 3.43568,-5.92766 4.35697,-12.86298 2.57836,-19.50401 -1.77862,-6.63782 -6.03962,-12.1848 -11.99607,-15.61408 l -50.28112,-29.02728 c -3.89312,-2.24887 -8.32687,-3.43888 -12.8214,-3.43888 h 0 c -9.18418,0 -17.73178,4.91999 -22.30628,12.8406 -3.44527,5.94685 -4.36657,12.88537 -2.58796,19.52639 1.77862,6.63783 6.03963,12.18161 11.99607,15.61089 l 50.28112,29.02728 c 3.90272,2.25846 8.35246,3.45807 12.86298,3.45807 z"
     inkscape:connector-curvature="0" /><path
     style="fill:#f3f3f3;fill-opacity:1"
     id="path4586"
     d="m 808.34446,496.99942 c 0,-14.18735 -11.54182,-25.72597 -25.72597,-25.72597 H 724.6279 c -14.18735,0 -25.72916,11.54182 -25.72916,25.72597 0,14.18415 11.54181,25.72596 25.72916,25.72596 h 57.99059 c 14.18415,0 25.72597,-11.54181 25.72597,-25.72596 z"
     inkscape:connector-curvature="0" /><path
     style="fill:#f3f3f3;fill-opacity:1"
     id="path4588"
     d="m 466.59088,517.37034 h 8.03577 c 5.30066,0 9.04024,4.261 8.35566,9.51688 l -8.56359,65.5945 c -0.68778,5.25587 1.34996,6.0908 4.55211,1.86499 l 82.24824,-108.6044 c 3.19895,-4.22582 1.49711,-7.6519 -3.80356,-7.6519 h -14.98069 c -5.30066,0 -8.12213,-4.03387 -6.30193,-9.01464 l 24.35042,-66.59897 c 1.8202,-4.97757 -1.00127,-9.01465 -6.30194,-9.01465 h -42.29013 c -5.30067,0 -11.07158,4.03388 -12.89178,9.01465 l -38.71051,105.87889 c -1.8202,4.97757 1.00127,9.01465 6.30193,9.01465 z"
     inkscape:connector-curvature="0" /></svg>