<?xml version="1.0" encoding="UTF-8" standalone="no"?>
<!-- Generator: Adobe Illustrator 16.0.0, SVG Export Plug-In . SVG Version: 6.00 Build 0)  -->

<svg
   xmlns:dc="http://purl.org/dc/elements/1.1/"
   xmlns:cc="http://creativecommons.org/ns#"
   xmlns:rdf="http://www.w3.org/1999/02/22-rdf-syntax-ns#"
   xmlns:svg="http://www.w3.org/2000/svg"
   xmlns="http://www.w3.org/2000/svg"
   xmlns:sodipodi="http://sodipodi.sourceforge.net/DTD/sodipodi-0.dtd"
   xmlns:inkscape="http://www.inkscape.org/namespaces/inkscape"
   version="1.1"
   id="Layer_1"
   x="0px"
   y="0px"
   width="1024"
   height="1024"
   viewBox="0 0 1024 1024"
   xml:space="preserve"
   inkscape:version="0.48.5 r10040"
   sodipodi:docname="launch.svg"
   inkscape:export-filename="/Users/ovilia/Workshop/zhujianer/git-repo/_design/icon/vector/launch.png"
   inkscape:export-xdpi="11.25"
   inkscape:export-ydpi="11.25"><metadata
     id="metadata3394"><rdf:RDF><cc:Work
         rdf:about=""><dc:format>image/svg+xml</dc:format><dc:type
           rdf:resource="http://purl.org/dc/dcmitype/StillImage" /><dc:title></dc:title></cc:Work></rdf:RDF></metadata><defs
     id="defs3392" /><sodipodi:namedview
     pagecolor="#ffffff"
     bordercolor="#666666"
     borderopacity="1"
     objecttolerance="10"
     gridtolerance="10"
     guidetolerance="10"
     inkscape:pageopacity="0"
     inkscape:pageshadow="2"
     inkscape:window-width="1280"
     inkscape:window-height="697"
     id="namedview3390"
     showgrid="true"
     inkscape:zoom="0.47949219"
     inkscape:cx="512"
     inkscape:cy="512"
     inkscape:window-x="0"
     inkscape:window-y="0"
     inkscape:window-maximized="1"
     inkscape:current-layer="Layer_1"
     showguides="true"
     inkscape:guide-bbox="true"><inkscape:grid
       type="xygrid"
       id="grid3621"
       empspacing="4"
       visible="true"
       enabled="true"
       snapvisiblegridlinesonly="true"
       spacingx="32px"
       spacingy="32px" /><sodipodi:guide
       orientation="0,1"
       position="320,832"
       id="guide4489" /><sodipodi:guide
       orientation="0,1"
       position="512,192"
       id="guide4491" /><sodipodi:guide
       orientation="1,0"
       position="224,800"
       id="guide4493" /><sodipodi:guide
       orientation="1,0"
       position="800,480"
       id="guide4495" /></sodipodi:namedview><g
     id="g3360"
     transform="translate(0,984.49202)"
     style="fill:#f3f3f3;fill-opacity:1" /><g
     id="g3362"
     transform="translate(0,984.49202)"
     style="fill:#f3f3f3;fill-opacity:1" /><g
     id="g3364"
     transform="translate(0,984.49202)"
     style="fill:#f3f3f3;fill-opacity:1" /><g
     id="g3366"
     transform="translate(0,984.49202)"
     style="fill:#f3f3f3;fill-opacity:1" /><g
     id="g3368"
     transform="translate(0,984.49202)"
     style="fill:#f3f3f3;fill-opacity:1" /><g
     id="g3370"
     transform="translate(0,984.49202)"
     style="fill:#f3f3f3;fill-opacity:1" /><g
     id="g3372"
     transform="translate(0,984.49202)"
     style="fill:#f3f3f3;fill-opacity:1" /><g
     id="g3374"
     transform="translate(0,984.49202)"
     style="fill:#f3f3f3;fill-opacity:1" /><g
     id="g3376"
     transform="translate(0,984.49202)"
     style="fill:#f3f3f3;fill-opacity:1" /><g
     id="g3378"
     transform="translate(0,984.49202)"
     style="fill:#f3f3f3;fill-opacity:1" /><g
     id="g3380"
     transform="translate(0,984.49202)"
     style="fill:#f3f3f3;fill-opacity:1" /><g
     id="g3382"
     transform="translate(0,984.49202)"
     style="fill:#f3f3f3;fill-opacity:1" /><g
     id="g3384"
     transform="translate(0,984.49202)"
     style="fill:#f3f3f3;fill-opacity:1" /><g
     id="g3386"
     transform="translate(0,984.49202)"
     style="fill:#f3f3f3;fill-opacity:1" /><g
     id="g3388"
     transform="translate(0,984.49202)"
     style="fill:#f3f3f3;fill-opacity:1" /><path
     style="fill:#f3f3f3;fill-opacity:1;fill-rule:nonzero;stroke:none"
     d="M 512 32 C 246.90332 32 32 246.90332 32 512 C 32 777.09668 246.90332 992 512 992 C 777.09668 992 992 777.09668 992 512 C 992 246.90332 777.09668 32 512 32 z M 512 64 C 759.42357 64 960 264.57643 960 512 C 960 759.42357 759.42357 960 512 960 C 264.57643 960 64 759.42357 64 512 C 64 264.57643 264.57643 64 512 64 z "
     id="path3628" /><path
     id="path6285"
     d="m 672.45776,510.57395 c 5.32517,-21.3989 8.02175,-43.20569 8.02175,-64.89162 0,-104.78134 -61.88534,-201.98658 -161.51524,-253.68233 -2.18294,-1.12546 -4.78133,-1.12546 -6.96427,0 -99.61479,51.69575 -161.50013,148.90099 -161.50013,253.67478 0,21.05899 2.5304,42.20863 7.53078,62.94283 -11.2924,9.4418 -22.08627,20.17524 -32.12479,31.95861 -1.60888,1.88081 -2.18294,4.42632 -1.55601,6.8132 l 56.01632,213.38473 c 0.68737,2.62859 2.71924,4.66802 5.34029,5.3856 2.62104,0.71002 5.40826,-0.0529 7.31928,-1.97145 7.3495,-7.38726 15.0238,-21.04389 23.92175,-36.85324 11.65496,-20.71154 25.63638,-45.56991 39.51961,-56.07675 v 6.08807 c 0,4.17706 3.37639,7.55345 7.55344,7.55345 h 102.44733 c 4.1846,0 7.55344,-3.37639 7.55344,-7.55345 v -4.13928 c 13.89078,10.51439 27.85709,35.35766 39.51205,56.06164 8.90551,15.82446 16.5798,29.48864 23.9293,36.86835 1.4276,1.44271 3.37639,2.22071 5.35539,2.22071 0.6647,0 1.32185,-0.0831 1.979,-0.26437 2.61349,-0.70247 4.64537,-2.75701 5.33273,-5.3705 l 56.00877,-213.36961 c 0.62694,-2.37934 0.0529,-4.92485 -1.54845,-6.80565 -10.03097,-11.78337 -20.81729,-22.51681 -32.13234,-31.97372 z M 572.34444,457.96423 c -11.37548,20.98346 -33.2578,34.00559 -57.10402,34.00559 -22.66032,0 -43.31898,-11.56432 -55.24587,-30.92379 -6.32978,-10.27268 -9.67595,-22.03339 -9.67595,-33.99804 0,-35.80331 29.12607,-64.92938 64.92938,-64.92938 35.81086,0 64.92938,29.12607 64.92938,64.92938 0,10.78632 -2.71168,21.47444 -7.83292,30.91624 z"
     inkscape:connector-curvature="0"
     style="fill:#f3f3f3;fill-opacity:1" /><path
     id="path6287"
     d="M 564.9043,725.5152 C 555.93081,716.24713 529.18408,714.66846 512,714.66846 c -17.18408,0 -43.94593,1.57867 -52.91186,10.84674 -1.29164,0.45321 -2.44732,1.22366 -3.33862,2.31136 -1.43516,1.72218 -2.03943,3.97311 -1.6391,6.17116 C 475.37336,851.33288 501.67444,864 512,864 c 30.99177,0 50.79689,-90.92077 57.88202,-130.00228 0.40033,-2.19805 -0.18884,-4.47164 -1.6391,-6.17116 -0.89886,-1.08014 -2.05453,-1.8657 -3.33862,-2.31136 z"
     inkscape:connector-curvature="0"
     style="fill:#d0648a;fill-opacity:1"
     sodipodi:nodetypes="cscccsccc" /></svg>