<?xml version="1.0" encoding="UTF-8" standalone="no"?>
<!-- Generator: Adobe Illustrator 16.0.0, SVG Export Plug-In . SVG Version: 6.00 Build 0)  -->

<svg
   xmlns:dc="http://purl.org/dc/elements/1.1/"
   xmlns:cc="http://creativecommons.org/ns#"
   xmlns:rdf="http://www.w3.org/1999/02/22-rdf-syntax-ns#"
   xmlns:svg="http://www.w3.org/2000/svg"
   xmlns="http://www.w3.org/2000/svg"
   xmlns:sodipodi="http://sodipodi.sourceforge.net/DTD/sodipodi-0.dtd"
   xmlns:inkscape="http://www.inkscape.org/namespaces/inkscape"
   version="1.1"
   id="Layer_1"
   x="0px"
   y="0px"
   width="1024"
   height="1024"
   viewBox="0 0 1024 1024"
   xml:space="preserve"
   inkscape:version="0.48.5 r10040"
   sodipodi:docname="launch-primary.svg"
   inkscape:export-filename="/Users/ovilia/Workshop/zhujianer/git-repo/_design/icon/vector/launch-primay.png"
   inkscape:export-xdpi="11.25"
   inkscape:export-ydpi="11.25"><metadata
     id="metadata3394"><rdf:RDF><cc:Work
         rdf:about=""><dc:format>image/svg+xml</dc:format><dc:type
           rdf:resource="http://purl.org/dc/dcmitype/StillImage" /><dc:title></dc:title></cc:Work></rdf:RDF></metadata><defs
     id="defs3392" /><sodipodi:namedview
     pagecolor="#ffffff"
     bordercolor="#666666"
     borderopacity="1"
     objecttolerance="10"
     gridtolerance="10"
     guidetolerance="10"
     inkscape:pageopacity="0"
     inkscape:pageshadow="2"
     inkscape:window-width="1280"
     inkscape:window-height="697"
     id="namedview3390"
     showgrid="true"
     inkscape:zoom="0.47949219"
     inkscape:cx="512"
     inkscape:cy="512"
     inkscape:window-x="0"
     inkscape:window-y="0"
     inkscape:window-maximized="1"
     inkscape:current-layer="Layer_1"
     showguides="true"
     inkscape:guide-bbox="true"><inkscape:grid
       type="xygrid"
       id="grid3621"
       empspacing="4"
       visible="true"
       enabled="true"
       snapvisiblegridlinesonly="true"
       spacingx="32px"
       spacingy="32px" /><sodipodi:guide
       orientation="0,1"
       position="320,832"
       id="guide4489" /><sodipodi:guide
       orientation="0,1"
       position="512,192"
       id="guide4491" /><sodipodi:guide
       orientation="1,0"
       position="224,800"
       id="guide4493" /><sodipodi:guide
       orientation="1,0"
       position="800,480"
       id="guide4495" /></sodipodi:namedview><g
     id="g3360"
     transform="translate(0,984.49202)"
     style="fill:#f3f3f3;fill-opacity:1" /><g
     id="g3362"
     transform="translate(0,984.49202)"
     style="fill:#f3f3f3;fill-opacity:1" /><g
     id="g3364"
     transform="translate(0,984.49202)"
     style="fill:#f3f3f3;fill-opacity:1" /><g
     id="g3366"
     transform="translate(0,984.49202)"
     style="fill:#f3f3f3;fill-opacity:1" /><g
     id="g3368"
     transform="translate(0,984.49202)"
     style="fill:#f3f3f3;fill-opacity:1" /><g
     id="g3370"
     transform="translate(0,984.49202)"
     style="fill:#f3f3f3;fill-opacity:1" /><g
     id="g3372"
     transform="translate(0,984.49202)"
     style="fill:#f3f3f3;fill-opacity:1" /><g
     id="g3374"
     transform="translate(0,984.49202)"
     style="fill:#f3f3f3;fill-opacity:1" /><g
     id="g3376"
     transform="translate(0,984.49202)"
     style="fill:#f3f3f3;fill-opacity:1" /><g
     id="g3378"
     transform="translate(0,984.49202)"
     style="fill:#f3f3f3;fill-opacity:1" /><g
     id="g3380"
     transform="translate(0,984.49202)"
     style="fill:#f3f3f3;fill-opacity:1" /><g
     id="g3382"
     transform="translate(0,984.49202)"
     style="fill:#f3f3f3;fill-opacity:1" /><g
     id="g3384"
     transform="translate(0,984.49202)"
     style="fill:#f3f3f3;fill-opacity:1" /><g
     id="g3386"
     transform="translate(0,984.49202)"
     style="fill:#f3f3f3;fill-opacity:1" /><g
     id="g3388"
     transform="translate(0,984.49202)"
     style="fill:#f3f3f3;fill-opacity:1" /><path
     style="fill:#f3f3f3;fill-opacity:1;fill-rule:nonzero;stroke:none"
     d="M 512 32 C 246.90332 32 32 246.90332 32 512 C 32 777.09668 246.90332 992 512 992 C 777.09668 992 992 777.09668 992 512 C 992 246.90332 777.09668 32 512 32 z M 512 64 C 759.42357 64 960 264.57643 960 512 C 960 759.42357 759.42357 960 512 960 C 264.57643 960 64 759.42357 64 512 C 64 264.57643 264.57643 64 512 64 z "
     id="path3628" /><g
     transform="translate(480,494)"
     id="text"
     style="fill:#f3f3f3;fill-opacity:1" /><g
     transform="translate(480,494)"
     id="_x31_"
     style="fill:#f3f3f3;fill-opacity:1" /><g
     transform="translate(480,494)"
     id="_x32_"
     style="fill:#f3f3f3;fill-opacity:1" /><g
     transform="translate(480,494)"
     id="_x33__1_"
     style="fill:#f3f3f3;fill-opacity:1" /><g
     transform="translate(480,494)"
     id="_x34_"
     style="fill:#f3f3f3;fill-opacity:1" /><g
     transform="translate(480,494)"
     id="_x35_"
     style="fill:#f3f3f3;fill-opacity:1" /><g
     transform="translate(480,494)"
     id="_x36_"
     style="fill:#f3f3f3;fill-opacity:1" /><path
     inkscape:connector-curvature="0"
     d="m 374.11914,562.31248 c 17.85801,0.96871 30.77417,-15.21861 31.67269,-31.67269 0.0561,-1.12314 -0.15444,-2.06377 -0.50542,-2.87804 -0.65985,-4.80146 -2.0357,-9.25192 -4.29603,-13.07061 8.64822,-10.02406 17.2824,-20.04813 25.95869,-30.08623 2.3586,-2.75171 4.71721,-5.48938 7.10388,-8.22704 6.38789,6.05094 14.99399,9.85559 25.01805,10.38909 10.02407,0.53349 18.67228,-3.58002 25.07421,-10.09427 13.36543,14.92379 26.71681,29.84758 40.06819,44.77136 -6.00882,8.22704 -9.7152,18.34938 -10.26273,28.55595 1.44604,26.59045 20.44123,45.58564 47.04571,47.01765 C 587.51665,598.44967 606.6803,574.4284 608,550 c 0.74408,-13.61812 -5.23666,-25.27076 -14.53069,-33.59606 12.39671,-18.60208 24.77939,-37.20417 37.16205,-55.80625 30.43722,10.97873 70.46329,-5.12435 72.79382,-48.3233 1.62855,-30.19856 -25.69194,-52.01564 -53.50381,-53.51785 -30.19855,-1.62856 -52.01564,25.72001 -53.51784,53.51785 -0.0561,1.08102 0.12635,2.00762 0.44926,2.80785 1.78298,18.33535 10.33292,31.61653 22.13999,39.6049 -12.04574,18.1107 -24.11954,36.23546 -36.1793,54.34616 -6.73887,-3.50982 -14.27798,-5.6438 -21.83113,-6.06498 -10.69796,-0.57561 -20.17449,3.03249 -27.78379,9.08343 -13.80065,-15.4292 -27.61532,-30.8584 -41.43,-46.2876 2.37264,-4.95587 3.84677,-10.36101 4.14159,-15.82229 1.12315,-20.76414 -17.70356,-35.80025 -36.83915,-36.83915 -20.76414,-1.12315 -35.78619,17.70356 -36.81106,36.83915 -0.0561,1.06697 0.11236,1.99357 0.42118,2.77977 0.56157,4.64701 1.7128,8.99921 3.58002,12.88809 -11.3578,13.16887 -22.70156,26.30966 -34.04532,39.46449 -5.02607,-3.5379 -11.16126,-5.74207 -18.09668,-6.12113 -17.85799,-0.95467 -30.77415,15.23265 -31.68671,31.67268 -0.95467,17.88608 15.26072,30.80224 31.68671,31.68672 z"
     id="path6601"
     style="fill:#f3f3f3;fill-opacity:1" /><path
     d="m 232.45312,289.1875 0,368.6875 200.46875,0 0,73.34375 -81.4375,0 0,15.59375 314.15625,0 0,-15.59375 -81.4375,0 0,-73.34375 207.34375,0 0,-368.6875 -559.09375,0 z m 31.75,28.59375 448,0 48.3125,0 2.5625,0 0,305.34375 -2.5625,0 0,0.90625 -496.3125,0 0,-0.90625 0,-31.09375 0,-242.25 0,-17.59375 0,-14.40625 z"
     id="path6603"
     inkscape:connector-curvature="0"
     style="fill:#f3f3f3;fill-opacity:1" /><g
     transform="translate(480,494)"
     id="_x38_"
     style="fill:#f3f3f3;fill-opacity:1" /><g
     transform="translate(480,494)"
     id="_x39_"
     style="fill:#f3f3f3;fill-opacity:1" /><g
     transform="translate(480,494)"
     id="_x31_0"
     style="fill:#f3f3f3;fill-opacity:1" /><g
     transform="translate(480,494)"
     id="_x31_1"
     style="fill:#f3f3f3;fill-opacity:1" /><g
     transform="translate(480,494)"
     id="_x31_2"
     style="fill:#f3f3f3;fill-opacity:1" /><g
     transform="translate(480,494)"
     id="_x31_3"
     style="fill:#f3f3f3;fill-opacity:1" /><g
     transform="translate(480,494)"
     id="_x31_4"
     style="fill:#f3f3f3;fill-opacity:1" /><g
     transform="translate(480,494)"
     id="_x31_5"
     style="fill:#f3f3f3;fill-opacity:1" /><g
     transform="translate(480,494)"
     id="_x31_6"
     style="fill:#f3f3f3;fill-opacity:1" /><g
     transform="translate(480,494)"
     id="_x31_7"
     style="fill:#f3f3f3;fill-opacity:1" /><g
     transform="translate(480,494)"
     id="_x31_8"
     style="fill:#f3f3f3;fill-opacity:1" /><g
     transform="translate(480,494)"
     id="_x31_9"
     style="fill:#f3f3f3;fill-opacity:1" /><g
     transform="translate(480,494)"
     id="_x32_0"
     style="fill:#f3f3f3;fill-opacity:1" /><g
     transform="translate(480,494)"
     id="_x32_1"
     style="fill:#f3f3f3;fill-opacity:1" /><g
     transform="translate(480,494)"
     id="_x32_2"
     style="fill:#f3f3f3;fill-opacity:1" /><g
     transform="translate(480,494)"
     id="_x32_3"
     style="fill:#f3f3f3;fill-opacity:1" /><g
     transform="translate(480,494)"
     id="_x32_4"
     style="fill:#f3f3f3;fill-opacity:1" /><g
     transform="translate(480,494)"
     id="_x32_5"
     style="fill:#f3f3f3;fill-opacity:1" /><g
     transform="translate(480,494)"
     id="_x32_6"
     style="fill:#f3f3f3;fill-opacity:1" /><g
     transform="translate(480,494)"
     id="_x32_7"
     style="fill:#f3f3f3;fill-opacity:1" /><g
     transform="translate(480,494)"
     id="_x32_8"
     style="fill:#f3f3f3;fill-opacity:1" /><g
     transform="translate(480,494)"
     id="_x32_9"
     style="fill:#f3f3f3;fill-opacity:1" /><g
     transform="translate(480,494)"
     id="_x33_0"
     style="fill:#f3f3f3;fill-opacity:1" /><g
     transform="translate(480,494)"
     id="_x33_1"
     style="fill:#f3f3f3;fill-opacity:1" /><g
     transform="translate(480,494)"
     id="_x33_2"
     style="fill:#f3f3f3;fill-opacity:1" /><g
     transform="translate(480,494)"
     id="_x33_3"
     style="fill:#f3f3f3;fill-opacity:1" /><g
     transform="translate(480,494)"
     id="_x33_4"
     style="fill:#f3f3f3;fill-opacity:1" /><g
     transform="translate(480,494)"
     id="_x33_5"
     style="fill:#f3f3f3;fill-opacity:1" /><g
     transform="translate(480,494)"
     id="_x33_6"
     style="fill:#f3f3f3;fill-opacity:1" /><g
     transform="translate(480,494)"
     id="_x33_7"
     style="fill:#f3f3f3;fill-opacity:1" /><g
     transform="translate(480,494)"
     id="_x33_8"
     style="fill:#f3f3f3;fill-opacity:1" /><g
     transform="translate(480,494)"
     id="_x33_9"
     style="fill:#f3f3f3;fill-opacity:1" /><g
     transform="translate(480,494)"
     id="_x34_0"
     style="fill:#f3f3f3;fill-opacity:1" /><g
     transform="translate(480,494)"
     id="_x34_1"
     style="fill:#f3f3f3;fill-opacity:1" /><g
     transform="translate(480,494)"
     id="_x34_2"
     style="fill:#f3f3f3;fill-opacity:1" /><g
     transform="translate(480,494)"
     id="_x34_3"
     style="fill:#f3f3f3;fill-opacity:1" /><g
     transform="translate(480,494)"
     id="_x34_4"
     style="fill:#f3f3f3;fill-opacity:1" /><g
     transform="translate(480,494)"
     id="_x34_5"
     style="fill:#f3f3f3;fill-opacity:1" /><g
     transform="translate(480,494)"
     id="_x34_6"
     style="fill:#f3f3f3;fill-opacity:1" /><g
     transform="translate(480,494)"
     id="_x34_7"
     style="fill:#f3f3f3;fill-opacity:1" /><g
     transform="translate(480,494)"
     id="_x34_8"
     style="fill:#f3f3f3;fill-opacity:1" /><g
     transform="translate(480,494)"
     id="_x34_9"
     style="fill:#f3f3f3;fill-opacity:1" /><g
     transform="translate(480,494)"
     id="_x35_0"
     style="fill:#f3f3f3;fill-opacity:1" /><g
     transform="translate(480,494)"
     id="_x35_1"
     style="fill:#f3f3f3;fill-opacity:1" /><g
     transform="translate(480,494)"
     id="_x35_2"
     style="fill:#f3f3f3;fill-opacity:1" /><g
     transform="translate(480,494)"
     id="_x35_3"
     style="fill:#f3f3f3;fill-opacity:1" /><g
     transform="translate(480,494)"
     id="_x35_4"
     style="fill:#f3f3f3;fill-opacity:1" /><g
     transform="translate(480,494)"
     id="_x35_5"
     style="fill:#f3f3f3;fill-opacity:1" /><g
     transform="translate(480,494)"
     id="_x35_6"
     style="fill:#f3f3f3;fill-opacity:1" /><g
     transform="translate(480,494)"
     id="_x35_7"
     style="fill:#f3f3f3;fill-opacity:1" /><g
     transform="translate(480,494)"
     id="_x35_8"
     style="fill:#f3f3f3;fill-opacity:1" /><g
     transform="translate(480,494)"
     id="_x35_9"
     style="fill:#f3f3f3;fill-opacity:1" /><g
     transform="translate(480,494)"
     id="_x36_0"
     style="fill:#f3f3f3;fill-opacity:1" /><g
     transform="translate(480,494)"
     id="_x36_1"
     style="fill:#f3f3f3;fill-opacity:1" /><g
     transform="translate(480,494)"
     id="_x36_2"
     style="fill:#f3f3f3;fill-opacity:1" /><g
     transform="translate(480,494)"
     id="_x36_3"
     style="fill:#f3f3f3;fill-opacity:1" /><g
     transform="translate(480,494)"
     id="_x36_4"
     style="fill:#f3f3f3;fill-opacity:1" /><g
     transform="translate(480,494)"
     id="_x36_5"
     style="fill:#f3f3f3;fill-opacity:1" /><g
     transform="translate(480,494)"
     id="_x36_6"
     style="fill:#f3f3f3;fill-opacity:1" /><g
     transform="translate(480,494)"
     id="_x36_7"
     style="fill:#f3f3f3;fill-opacity:1" /><g
     transform="translate(480,494)"
     id="_x36_8"
     style="fill:#f3f3f3;fill-opacity:1" /><g
     transform="translate(480,494)"
     id="_x36_9"
     style="fill:#f3f3f3;fill-opacity:1" /><g
     transform="translate(480,494)"
     id="_x37_0"
     style="fill:#f3f3f3;fill-opacity:1" /><g
     transform="translate(480,494)"
     id="_x37_1"
     style="fill:#f3f3f3;fill-opacity:1" /><g
     transform="translate(480,494)"
     id="_x37_2"
     style="fill:#f3f3f3;fill-opacity:1" /><g
     transform="translate(480,494)"
     id="_x37_3"
     style="fill:#f3f3f3;fill-opacity:1" /><g
     transform="translate(480,494)"
     id="_x37_4"
     style="fill:#f3f3f3;fill-opacity:1" /><g
     transform="translate(480,494)"
     id="_x37_5"
     style="fill:#f3f3f3;fill-opacity:1" /><g
     transform="translate(480,494)"
     id="_x37_6"
     style="fill:#f3f3f3;fill-opacity:1" /><g
     transform="translate(480,494)"
     id="_x37_7"
     style="fill:#f3f3f3;fill-opacity:1" /><g
     transform="translate(480,494)"
     id="_x37_8"
     style="fill:#f3f3f3;fill-opacity:1" /><g
     transform="translate(480,494)"
     id="_x37_9"
     style="fill:#f3f3f3;fill-opacity:1" /><g
     transform="translate(480,494)"
     id="_x38_0"
     style="fill:#f3f3f3;fill-opacity:1" /><g
     transform="translate(480,494)"
     id="_x38_1"
     style="fill:#f3f3f3;fill-opacity:1" /><g
     transform="translate(480,494)"
     id="_x38_2"
     style="fill:#f3f3f3;fill-opacity:1" /><g
     transform="translate(480,494)"
     id="_x38_3"
     style="fill:#f3f3f3;fill-opacity:1" /><g
     transform="translate(480,494)"
     id="_x38_4"
     style="fill:#f3f3f3;fill-opacity:1" /><g
     transform="translate(480,494)"
     id="_x38_5"
     style="fill:#f3f3f3;fill-opacity:1" /><g
     transform="translate(480,494)"
     id="_x38_6"
     style="fill:#f3f3f3;fill-opacity:1" /><g
     transform="translate(480,494)"
     id="_x38_7"
     style="fill:#f3f3f3;fill-opacity:1" /><g
     transform="translate(480,494)"
     id="_x38_8"
     style="fill:#f3f3f3;fill-opacity:1" /><g
     transform="translate(480,494)"
     id="_x38_9"
     style="fill:#f3f3f3;fill-opacity:1" /><g
     transform="translate(480,494)"
     id="_x39_0"
     style="fill:#f3f3f3;fill-opacity:1" /><g
     transform="translate(480,494)"
     id="_x39_1"
     style="fill:#f3f3f3;fill-opacity:1" /><g
     transform="translate(480,494)"
     id="_x39_2"
     style="fill:#f3f3f3;fill-opacity:1" /><g
     transform="translate(480,494)"
     id="_x39_3"
     style="fill:#f3f3f3;fill-opacity:1" /><g
     transform="translate(480,494)"
     id="_x39_4"
     style="fill:#f3f3f3;fill-opacity:1" /><g
     transform="translate(480,494)"
     id="_x39_5"
     style="fill:#f3f3f3;fill-opacity:1" /><g
     transform="translate(480,494)"
     id="_x39_6"
     style="fill:#f3f3f3;fill-opacity:1" /><g
     transform="translate(480,494)"
     id="_x39_7"
     style="fill:#f3f3f3;fill-opacity:1" /><g
     transform="translate(480,494)"
     id="_x39_8"
     style="fill:#f3f3f3;fill-opacity:1" /><g
     transform="translate(480,494)"
     id="_x39_9"
     style="fill:#f3f3f3;fill-opacity:1" /><g
     transform="translate(480,494)"
     id="_x31_00"
     style="fill:#f3f3f3;fill-opacity:1" /><g
     transform="translate(480,494)"
     id="_x31_01"
     style="fill:#f3f3f3;fill-opacity:1" /><g
     transform="translate(480,494)"
     id="_x31_02"
     style="fill:#f3f3f3;fill-opacity:1" /><g
     transform="translate(480,494)"
     id="_x31_03"
     style="fill:#f3f3f3;fill-opacity:1" /><g
     transform="translate(480,494)"
     id="_x31_04"
     style="fill:#f3f3f3;fill-opacity:1" /><g
     transform="translate(480,494)"
     id="_x31_05"
     style="fill:#f3f3f3;fill-opacity:1" /><g
     transform="translate(480,494)"
     id="_x31_06"
     style="fill:#f3f3f3;fill-opacity:1" /><g
     transform="translate(480,494)"
     id="_x31_07"
     style="fill:#f3f3f3;fill-opacity:1" /><g
     transform="translate(480,494)"
     id="_x31_08"
     style="fill:#f3f3f3;fill-opacity:1" /><g
     transform="translate(480,494)"
     id="_x31_09"
     style="fill:#f3f3f3;fill-opacity:1" /><g
     transform="translate(480,494)"
     id="_x31_10"
     style="fill:#f3f3f3;fill-opacity:1" /><g
     transform="translate(480,494)"
     id="_x31_11"
     style="fill:#f3f3f3;fill-opacity:1" /><g
     transform="translate(480,494)"
     id="_x31_12"
     style="fill:#f3f3f3;fill-opacity:1" /><g
     transform="translate(480,494)"
     id="_x31_13"
     style="fill:#f3f3f3;fill-opacity:1" /><g
     transform="translate(480,494)"
     id="_x31_14"
     style="fill:#f3f3f3;fill-opacity:1" /><g
     transform="translate(480,494)"
     id="_x31_15"
     style="fill:#f3f3f3;fill-opacity:1" /><g
     transform="translate(480,494)"
     id="_x31_16"
     style="fill:#f3f3f3;fill-opacity:1" /><g
     transform="translate(480,494)"
     id="_x31_17"
     style="fill:#f3f3f3;fill-opacity:1" /><g
     transform="translate(480,494)"
     id="_x31_18"
     style="fill:#f3f3f3;fill-opacity:1" /><g
     transform="translate(480,494)"
     id="_x31_19"
     style="fill:#f3f3f3;fill-opacity:1" /><g
     transform="translate(480,494)"
     id="_x31_20"
     style="fill:#f3f3f3;fill-opacity:1" /><g
     transform="translate(480,494)"
     id="_x31_21"
     style="fill:#f3f3f3;fill-opacity:1" /><g
     transform="translate(480,494)"
     id="_x31_22"
     style="fill:#f3f3f3;fill-opacity:1" /><g
     transform="translate(480,494)"
     id="_x31_23"
     style="fill:#f3f3f3;fill-opacity:1" /><g
     transform="translate(480,494)"
     id="_x31_24"
     style="fill:#f3f3f3;fill-opacity:1" /><g
     transform="translate(480,494)"
     id="_x31_25"
     style="fill:#f3f3f3;fill-opacity:1" /><g
     transform="translate(480,494)"
     id="_x31_26"
     style="fill:#f3f3f3;fill-opacity:1" /><g
     transform="translate(480,494)"
     id="_x31_27"
     style="fill:#f3f3f3;fill-opacity:1" /><g
     transform="translate(480,494)"
     id="_x31_28"
     style="fill:#f3f3f3;fill-opacity:1" /><g
     transform="translate(480,494)"
     id="_x31_29"
     style="fill:#f3f3f3;fill-opacity:1" /><g
     transform="translate(480,494)"
     id="_x31_30"
     style="fill:#f3f3f3;fill-opacity:1" /><g
     transform="translate(480,494)"
     id="_x31_31"
     style="fill:#f3f3f3;fill-opacity:1" /><g
     transform="translate(480,494)"
     id="_x31_32"
     style="fill:#f3f3f3;fill-opacity:1" /><g
     transform="translate(480,494)"
     id="_x31_33"
     style="fill:#f3f3f3;fill-opacity:1" /><g
     transform="translate(480,494)"
     id="_x31_34"
     style="fill:#f3f3f3;fill-opacity:1" /><g
     transform="translate(480,494)"
     id="_x31_35"
     style="fill:#f3f3f3;fill-opacity:1" /><g
     transform="translate(480,494)"
     id="_x31_36"
     style="fill:#f3f3f3;fill-opacity:1" /><g
     transform="translate(480,494)"
     id="_x31_37"
     style="fill:#f3f3f3;fill-opacity:1" /><g
     transform="translate(480,494)"
     id="_x31_38"
     style="fill:#f3f3f3;fill-opacity:1" /><g
     transform="translate(480,494)"
     id="_x31_39"
     style="fill:#f3f3f3;fill-opacity:1" /><g
     transform="translate(480,494)"
     id="_x31_40"
     style="fill:#f3f3f3;fill-opacity:1" /><g
     transform="translate(480,494)"
     id="_x31_41"
     style="fill:#f3f3f3;fill-opacity:1" /><g
     transform="translate(480,494)"
     id="_x31_42"
     style="fill:#f3f3f3;fill-opacity:1" /><g
     transform="translate(480,494)"
     id="_x31_43"
     style="fill:#f3f3f3;fill-opacity:1" /><g
     transform="translate(480,494)"
     id="_x31_44"
     style="fill:#f3f3f3;fill-opacity:1" /><g
     transform="translate(480,494)"
     id="_x31_45"
     style="fill:#f3f3f3;fill-opacity:1" /><g
     transform="translate(480,494)"
     id="_x31_46"
     style="fill:#f3f3f3;fill-opacity:1" /><g
     transform="translate(480,494)"
     id="_x31_47"
     style="fill:#f3f3f3;fill-opacity:1" /><g
     transform="translate(480,494)"
     id="_x31_48"
     style="fill:#f3f3f3;fill-opacity:1" /><g
     transform="translate(480,494)"
     id="_x31_49"
     style="fill:#f3f3f3;fill-opacity:1" /><g
     transform="translate(480,494)"
     id="_x31_50"
     style="fill:#f3f3f3;fill-opacity:1" /><g
     transform="translate(480,494)"
     id="_x31_51"
     style="fill:#f3f3f3;fill-opacity:1" /><g
     transform="translate(480,494)"
     id="_x31_52"
     style="fill:#f3f3f3;fill-opacity:1" /><g
     transform="translate(480,494)"
     id="_x31_53"
     style="fill:#f3f3f3;fill-opacity:1" /><g
     transform="translate(480,494)"
     id="_x31_54"
     style="fill:#f3f3f3;fill-opacity:1" /><g
     transform="translate(480,494)"
     id="_x31_55"
     style="fill:#f3f3f3;fill-opacity:1" /><g
     transform="translate(480,494)"
     id="_x31_56"
     style="fill:#f3f3f3;fill-opacity:1" /><g
     transform="translate(480,494)"
     id="_x31_57"
     style="fill:#f3f3f3;fill-opacity:1" /><g
     transform="translate(480,494)"
     id="_x31_58"
     style="fill:#f3f3f3;fill-opacity:1" /><g
     transform="translate(480,494)"
     id="_x31_59"
     style="fill:#f3f3f3;fill-opacity:1" /><g
     transform="translate(480,494)"
     id="_x31_60"
     style="fill:#f3f3f3;fill-opacity:1" /><g
     transform="translate(480,494)"
     id="_x31_61"
     style="fill:#f3f3f3;fill-opacity:1" /><g
     transform="translate(480,494)"
     id="_x31_62"
     style="fill:#f3f3f3;fill-opacity:1" /><g
     transform="translate(480,494)"
     id="_x31_63"
     style="fill:#f3f3f3;fill-opacity:1" /><g
     transform="translate(480,494)"
     id="_x31_64"
     style="fill:#f3f3f3;fill-opacity:1" /><g
     transform="translate(480,494)"
     id="_x31_65"
     style="fill:#f3f3f3;fill-opacity:1" /><g
     transform="translate(480,494)"
     id="_x31_66"
     style="fill:#f3f3f3;fill-opacity:1" /><g
     transform="translate(480,494)"
     id="_x31_67"
     style="fill:#f3f3f3;fill-opacity:1" /><g
     transform="translate(480,494)"
     id="_x31_68"
     style="fill:#f3f3f3;fill-opacity:1" /><g
     transform="translate(480,494)"
     id="_x31_69"
     style="fill:#f3f3f3;fill-opacity:1" /><g
     transform="translate(480,494)"
     id="_x31_70"
     style="fill:#f3f3f3;fill-opacity:1" /><g
     transform="translate(480,494)"
     id="_x31_71"
     style="fill:#f3f3f3;fill-opacity:1" /><g
     transform="translate(480,494)"
     id="_x31_72"
     style="fill:#f3f3f3;fill-opacity:1" /><g
     transform="translate(480,494)"
     id="_x31_73"
     style="fill:#f3f3f3;fill-opacity:1" /><g
     transform="translate(480,494)"
     id="_x31_74"
     style="fill:#f3f3f3;fill-opacity:1" /><g
     transform="translate(480,494)"
     id="_x31_75"
     style="fill:#f3f3f3;fill-opacity:1" /><g
     transform="translate(480,494)"
     id="_x31_76"
     style="fill:#f3f3f3;fill-opacity:1" /><g
     transform="translate(480,494)"
     id="_x31_77"
     style="fill:#f3f3f3;fill-opacity:1" /><g
     transform="translate(480,494)"
     id="_x31_78"
     style="fill:#f3f3f3;fill-opacity:1" /><g
     transform="translate(480,494)"
     id="_x31_79"
     style="fill:#f3f3f3;fill-opacity:1" /><g
     transform="translate(480,494)"
     id="_x31_80"
     style="fill:#f3f3f3;fill-opacity:1" /><g
     transform="translate(480,494)"
     id="_x31_81"
     style="fill:#f3f3f3;fill-opacity:1" /><g
     transform="translate(480,494)"
     id="_x31_82"
     style="fill:#f3f3f3;fill-opacity:1" /><g
     transform="translate(480,494)"
     id="_x31_83"
     style="fill:#f3f3f3;fill-opacity:1" /><g
     transform="translate(480,494)"
     id="_x31_84"
     style="fill:#f3f3f3;fill-opacity:1" /><g
     transform="translate(480,494)"
     id="_x31_85"
     style="fill:#f3f3f3;fill-opacity:1" /><g
     transform="translate(480,494)"
     id="_x31_86"
     style="fill:#f3f3f3;fill-opacity:1" /><g
     transform="translate(480,494)"
     id="_x31_87"
     style="fill:#f3f3f3;fill-opacity:1" /><g
     transform="translate(480,494)"
     id="_x31_88"
     style="fill:#f3f3f3;fill-opacity:1" /><g
     transform="translate(480,494)"
     id="_x31_89"
     style="fill:#f3f3f3;fill-opacity:1" /><g
     transform="translate(480,494)"
     id="_x31_90"
     style="fill:#f3f3f3;fill-opacity:1" /></svg>