<?xml version="1.0" encoding="iso-8859-1"?>
<!-- Generator: Adobe Illustrator 16.0.0, SVG Export Plug-In . SVG Version: 6.00 Build 0)  -->
<!DOCTYPE svg PUBLIC "-//W3C//DTD SVG 1.1//EN" "http://www.w3.org/Graphics/SVG/1.1/DTD/svg11.dtd">
<svg version="1.1" id="Layer_1" xmlns="http://www.w3.org/2000/svg" xmlns:xlink="http://www.w3.org/1999/xlink" x="0px" y="0px"
	 width="46.792px" height="39.508px" viewBox="0 0 46.792 39.508" style="enable-background:new 0 0 46.792 39.508;"
	 xml:space="preserve">
<g>
	<path d="M0,39.362h10.962V0.146H0V39.362z M1.675,35.594h2.334v-0.611H1.675v-1.546h2.334v-0.609H1.675v-1.379h2.334v-0.61H1.675
		v-1.37h4.819V28.49H1.675v-1.669h2.334V26.21H1.675v-1.544h2.334v-0.61H1.675v-1.379h2.334v-0.611H1.675v-1.37h4.819v-0.978H1.675
		v-1.973h2.334v-0.611H1.675v-1.543h2.334v-0.611H1.675v-1.379h2.334v-0.61H1.675v-1.37h4.819v-0.978H1.675V9.13h2.968V8.52H1.675
		V6.975h2.968v-0.61H1.675V4.985h2.968v-0.61H1.675V1.821h7.611v35.864H1.675V35.594z"/>
	<path d="M13.96,0v39.508h32.831L13.96,0z M15.636,36.801h2.334v-0.597h-2.334v-1.51h2.334v-0.597h-2.334v-1.35h2.334v-0.596h-2.334
		v-1.34h4.818v-0.956h-4.818v-1.631h2.334v-0.597h-2.334v-1.51h2.334v-0.597h-2.334v-1.349h2.334v-0.598h-2.334v-1.339h4.818v-0.955
		h-4.818v-1.929h2.334v-0.597h-2.334v-1.51h2.334V16.65h-2.334v-1.35h2.334v-0.596h-2.334v-1.341h4.818V12.41h-4.818v-1.479h2.968
		v-0.596h-2.968V8.824h2.968V8.228h-2.968V4.615L43.271,37.87H15.636V36.801z"/>
	<path d="M21.479,19.453v13.568h11.277L21.479,19.453z M23.155,24.066l6.08,7.316h-6.08V24.066z"/>
</g>
<g>
</g>
<g>
</g>
<g>
</g>
<g>
</g>
<g>
</g>
<g>
</g>
<g>
</g>
<g>
</g>
<g>
</g>
<g>
</g>
<g>
</g>
<g>
</g>
<g>
</g>
<g>
</g>
<g>
</g>
</svg>
