<?xml version="1.0" encoding="utf-8"?>
<!-- Generator: Adobe Illustrator 16.0.4, SVG Export Plug-In . SVG Version: 6.00 Build 0)  -->
<!DOCTYPE svg PUBLIC "-//W3C//DTD SVG 1.1//EN" "http://www.w3.org/Graphics/SVG/1.1/DTD/svg11.dtd">
<svg version="1.1" id="Layer_1" xmlns="http://www.w3.org/2000/svg" xmlns:xlink="http://www.w3.org/1999/xlink" x="0px" y="0px"
	 width="32px" height="32px" viewBox="0 0 32 32" enable-background="new 0 0 32 32" xml:space="preserve">
<path d="M31.473,9.898l-6.516,6.284l-1.337-1.418l4.932-4.756c0.476-0.46,0.49-1.219,0.03-1.696l-4.404-4.566
	c-0.222-0.23-0.523-0.361-0.842-0.366c-0.318-0.007-0.624,0.114-0.854,0.335l-3.887,3.747l3.375,3.495
	c0.277,0.289,0.254,0.765-0.035,1.046c-0.203,0.194-0.5,0.255-0.752,0.173l-4.896-5.191l6.406-6.183
	c0.389-0.371,1.013-0.35,1.386,0.037l7.405,7.676C31.857,8.902,31.857,9.525,31.473,9.898z M9.35,28.529
	c-0.227,0.22-0.535,0.341-0.852,0.334c-0.319-0.006-0.622-0.137-0.844-0.365L3.251,23.93c-0.459-0.477-0.447-1.229,0.03-1.693
	l2.025,2.103c0.279,0.289,0.737,0.297,1.026,0.021c0.289-0.277,0.295-0.734,0.015-1.024L4.325,21.23l0.539-0.521l2.025,2.104
	c0.277,0.287,0.735,0.297,1.026,0.021C8.203,22.555,8.21,22.1,7.93,21.809l-2.024-2.101l0.54-0.521l2.023,2.101
	c0.279,0.287,0.739,0.297,1.026,0.021c0.291-0.279,0.296-0.735,0.018-1.026l-2.025-2.101l0.539-0.521l2.025,2.1
	c0.278,0.291,0.736,0.3,1.026,0.021c0.107-0.103,0.177-0.234,0.205-0.368l-3.749-3.98L0.36,22.348
	c-0.384,0.373-0.384,0.998-0.013,1.383l7.405,7.68c0.372,0.386,0.998,0.408,1.382,0.033l7.067-6.813l-1.336-1.417L9.35,28.529z
	 M22.289,9.655c-0.934-0.965-0.906-2.511,0.062-3.442c0.963-0.933,2.508-0.905,3.44,0.061c0.933,0.967,0.901,2.513-0.062,3.442
	C24.766,10.649,23.221,10.621,22.289,9.655z M23.334,8.647c0.376,0.386,0.996,0.397,1.387,0.023
	c0.387-0.375,0.399-0.997,0.023-1.385c-0.375-0.388-0.997-0.401-1.385-0.026C22.971,7.634,22.959,8.256,23.334,8.647z
	 M27.266,21.116l-6.373,6.005L6.691,12.051l6.375-6.005L27.266,21.116z M14.135,10.248c0.003-0.144-0.049-0.286-0.151-0.392
	L13.29,9.122c-0.206-0.219-0.553-0.23-0.774-0.023L12.14,9.452c-0.221,0.206-0.23,0.556-0.024,0.774l0.69,0.739
	c0.103,0.106,0.239,0.17,0.386,0.171c0.145,0.006,0.769-0.503,0.769-0.503C14.067,10.532,14.129,10.394,14.135,10.248z
	 M24.001,21.287c0.222-0.208,0.231-0.555,0.022-0.776l-7.979-8.465c-0.1-0.108-0.236-0.17-0.384-0.173
	c-0.143-0.005-0.286,0.05-0.391,0.148l-0.377,0.356c-0.221,0.207-0.231,0.553-0.023,0.774l7.977,8.466
	c0.104,0.107,0.239,0.17,0.387,0.174c0.146,0.005,0.287-0.05,0.394-0.15L24.001,21.287z M6.046,11.364l6.373-6.007l-1.646-1.746
	L4.401,9.619L6.046,11.364z M1.56,6.601C1.213,6.233,1.029,5.748,1.043,5.244c0.016-0.503,0.229-0.977,0.596-1.322l3.612-3.403
	c0.76-0.722,1.96-0.685,2.679,0.077l2.239,2.375L3.796,8.976L1.56,6.601z M2.697,5.294l1.17,1.244l3.863-3.64L6.557,1.656
	L2.697,5.294z M30.5,29.695c0.109,0.345,0.01,0.722-0.252,0.97c-0.264,0.249-0.646,0.323-0.984,0.194L21.7,27.973l6.366-6.007
	L30.5,29.695z M28.479,27.1l-0.957-3.039l-3.701,3.491l2.978,1.136L28.479,27.1z"/>
</svg>
