<?xml version="1.0" encoding="iso-8859-1"?>
<!-- Generator: Adobe Illustrator 17.1.0, SVG Export Plug-In . SVG Version: 6.00 Build 0)  -->
<!DOCTYPE svg PUBLIC "-//W3C//DTD SVG 1.1//EN" "http://www.w3.org/Graphics/SVG/1.1/DTD/svg11.dtd">
<svg version="1.1" id="Capa_1" xmlns="http://www.w3.org/2000/svg" xmlns:xlink="http://www.w3.org/1999/xlink" x="0px" y="0px"
	 viewBox="0 0 200 200" style="enable-background:new 0 0 200 200;" xml:space="preserve">
<g>
	<path d="M86.039,186.471c0.92,6.883,6.83,12.209,13.961,12.209s13.041-5.326,13.961-12.209c6.883-0.92,12.209-6.83,12.209-13.961
		v-28.849c18.669-9.833,30.212-28.764,30.212-49.703c0-31.089-25.293-56.382-56.383-56.382S43.617,62.868,43.617,93.957
		c0,20.939,11.544,39.871,30.212,49.703v28.849C73.83,179.641,79.156,185.551,86.039,186.471z M100,53.66
		c22.22,0,40.298,18.077,40.298,40.297c0,15.216-8.594,28.966-22.427,35.883l-6.68,3.34l-1.106,0.553v1.236v11.371h-20.17v-11.371
		v-1.236l-1.106-0.553l-6.68-3.34c-13.834-6.917-22.427-20.666-22.427-35.883C59.702,71.737,77.78,53.66,100,53.66z
		 M110.085,162.425v8.085h-20.17v-8.085H110.085z"/>
	<path d="M91.958,9.363V27.49c0,4.435,3.608,8.042,8.042,8.042s8.042-3.608,8.042-8.042V9.363c0-4.435-3.608-8.042-8.042-8.042
		S91.958,4.928,91.958,9.363z"/>
	<path d="M161.567,67.702l15.72-9.07c1.864-1.08,3.194-2.816,3.749-4.89c0.556-2.077,0.268-4.246-0.811-6.106
		c-1.408-2.474-4.077-4.02-6.959-4.02h0c-1.403,0-2.791,0.369-4.013,1.068l-15.716,9.08c-1.861,1.071-3.194,2.808-3.749,4.889
		c-0.554,2.078-0.265,4.244,0.814,6.099c1.407,2.47,4.076,4.015,6.956,4.015C158.955,68.766,160.342,68.398,161.567,67.702z"/>
	<path d="M125.464,38.481c0.556,2.075,1.888,3.809,3.75,4.881c1.217,0.706,2.609,1.081,4.019,1.081c2.871,0,5.54-1.543,6.963-4.027
		l9.061-15.703c1.076-1.848,1.365-4.014,0.81-6.092c-0.555-2.081-1.888-3.817-3.752-4.89c-1.224-0.697-2.606-1.063-4.005-1.063h0
		c-2.875,0-5.547,1.534-6.974,4.003l-9.064,15.709C125.197,34.237,124.909,36.406,125.464,38.481z"/>
	<path d="M26.746,144.298c1.418,0,2.81-0.377,4.023-1.09l15.694-9.055c1.861-1.071,3.193-2.804,3.749-4.879
		c0.556-2.076,0.268-4.244-0.811-6.105c-1.439-2.482-4.11-4.024-6.972-4.024h0c-1.412,0-2.803,0.379-4.022,1.096l-15.694,9.055
		c-3.832,2.215-5.151,7.14-2.941,10.98C21.212,142.758,23.883,144.298,26.746,144.298z"/>
	<path d="M15.405,102h18.128c4.435,0,8.042-3.608,8.042-8.042s-3.608-8.042-8.042-8.042H15.405c-4.435,0-8.043,3.608-8.043,8.042
		S10.97,102,15.405,102z"/>
	<path d="M46.47,53.772l-15.714-9.084c-1.213-0.706-2.6-1.081-4.006-1.081h0c-2.872,0-5.546,1.546-6.977,4.033
		c-2.206,3.833-0.889,8.762,2.934,10.988l15.727,9.068c1.218,0.707,2.61,1.082,4.02,1.082c2.864,0,5.535-1.54,6.971-4.019
		c1.079-1.862,1.367-4.031,0.809-6.106C49.676,56.577,48.34,54.844,46.47,53.772z"/>
	<path d="M57.683,12.651L57.683,12.651c-1.408,0-2.795,0.376-4.01,1.086c-1.85,1.065-3.182,2.799-3.74,4.877
		c-0.558,2.077-0.274,4.243,0.799,6.1l9.052,15.672c1.437,2.481,4.108,4.021,6.972,4.021c1.405,0,2.791-0.37,4.007-1.069
		c1.87-1.079,3.204-2.813,3.761-4.885c0.557-2.073,0.27-4.243-0.807-6.11l-9.04-15.672C63.219,14.187,60.542,12.651,57.683,12.651z"
		/>
	<path d="M173.265,144.298c2.871,0,5.539-1.543,6.963-4.026c1.074-1.853,1.362-4.021,0.806-6.097
		c-0.556-2.075-1.888-3.809-3.75-4.881l-15.718-9.074c-1.217-0.703-2.603-1.075-4.008-1.075h0c-2.871,0-5.543,1.538-6.973,4.014
		c-1.077,1.859-1.365,4.028-0.809,6.104c0.556,2.075,1.888,3.808,3.75,4.88l15.718,9.074
		C170.464,143.923,171.855,144.298,173.265,144.298z"/>
	<path d="M192.638,93.958c0-4.435-3.608-8.042-8.042-8.042h-18.128c-4.435,0-8.043,3.608-8.043,8.042s3.608,8.042,8.043,8.042
		h18.128C189.03,102,192.638,98.392,192.638,93.958z"/>
	<path d="M85.805,100.326h2.512c1.657,0,2.826,1.332,2.612,2.975l-2.677,20.505c-0.215,1.643,0.422,1.904,1.423,0.583l25.711-33.95
		c1-1.321,0.468-2.392-1.189-2.392h-4.683c-1.657,0-2.539-1.261-1.97-2.818l7.612-20.819c0.569-1.556-0.313-2.818-1.97-2.818H99.966
		c-1.657,0-3.461,1.261-4.03,2.818L83.835,97.508C83.266,99.064,84.148,100.326,85.805,100.326z"/>
</g>
</svg>
