<?xml version="1.0" encoding="utf-8"?>
<!-- Generator: Adobe Illustrator 16.0.0, SVG Export Plug-In . SVG Version: 6.00 Build 0)  -->
<!DOCTYPE svg PUBLIC "-//W3C//DTD SVG 1.1//EN" "http://www.w3.org/Graphics/SVG/1.1/DTD/svg11.dtd">
<svg version="1.1" id="Layer_1" xmlns="http://www.w3.org/2000/svg" xmlns:xlink="http://www.w3.org/1999/xlink" x="0px" y="0px"
	 width="100px" height="100px" viewBox="0 0 100 100" enable-background="new 0 0 100 100" xml:space="preserve">
<g>
	<path d="M50,30.569c-3.637,0-6.596,2.959-6.596,6.596c0,1.214,0.34,2.408,0.984,3.452c1.213,1.969,3.311,3.144,5.612,3.144
		c2.422,0,4.646-1.324,5.801-3.456c0.521-0.958,0.795-2.043,0.795-3.14C56.597,33.528,53.638,30.569,50,30.569z"/>
	<path d="M70.814,48.223c0.705-2.833,1.062-5.72,1.062-8.591c0-13.872-8.193-26.741-21.383-33.585c-0.289-0.149-0.633-0.149-0.922,0
		C36.383,12.891,28.19,25.76,28.19,39.631c0,2.788,0.335,5.588,0.997,8.333c-1.495,1.25-2.924,2.671-4.253,4.231
		c-0.213,0.249-0.289,0.586-0.206,0.902l7.416,28.25c0.091,0.348,0.36,0.618,0.707,0.713c0.347,0.094,0.716-0.007,0.969-0.261
		c0.973-0.978,1.989-2.786,3.167-4.879c1.543-2.742,3.394-6.033,5.232-7.424v0.806c0,0.553,0.447,1,1,1h13.563c0.554,0,1-0.447,1-1
		v-0.548c1.839,1.392,3.688,4.681,5.231,7.422c1.179,2.095,2.195,3.904,3.168,4.881c0.189,0.191,0.447,0.294,0.709,0.294
		c0.088,0,0.175-0.011,0.262-0.035c0.346-0.093,0.615-0.365,0.706-0.711l7.415-28.248c0.083-0.315,0.007-0.652-0.205-0.901
		C73.74,50.896,72.312,49.475,70.814,48.223z M57.56,41.258C56.054,44.036,53.157,45.76,50,45.76c-3,0-5.735-1.531-7.314-4.094
		c-0.838-1.36-1.281-2.917-1.281-4.501c0-4.74,3.856-8.596,8.596-8.596c4.741,0,8.596,3.856,8.596,8.596
		C58.597,38.593,58.238,40.008,57.56,41.258z"/>
	<path d="M56.089,75.73c-1.188-1.227-4.729-1.436-7.004-1.436s-5.818,0.209-7.005,1.436c-0.171,0.06-0.324,0.162-0.442,0.306
		c-0.19,0.228-0.27,0.526-0.217,0.817c2.815,15.534,6.297,17.211,7.664,17.211c4.103,0,6.725-12.037,7.663-17.211
		c0.053-0.291-0.025-0.592-0.217-0.817C56.412,75.893,56.259,75.789,56.089,75.73z M49.084,92.064c-1.487,0-4.04-6.859-5.563-14.854
		c0.035-0.055,0.064-0.112,0.088-0.172c0.513-0.288,2.433-0.743,5.475-0.743c3.043,0,4.963,0.455,5.475,0.743
		c0.023,0.061,0.055,0.117,0.09,0.172C53.123,85.203,50.57,92.064,49.084,92.064z"/>
</g>
</svg>
