<?xml version="1.0" encoding="UTF-8" standalone="no"?>
<!-- Created with Inkscape (http://www.inkscape.org/) -->

<svg
   xmlns:dc="http://purl.org/dc/elements/1.1/"
   xmlns:cc="http://creativecommons.org/ns#"
   xmlns:rdf="http://www.w3.org/1999/02/22-rdf-syntax-ns#"
   xmlns:svg="http://www.w3.org/2000/svg"
   xmlns="http://www.w3.org/2000/svg"
   xmlns:sodipodi="http://sodipodi.sourceforge.net/DTD/sodipodi-0.dtd"
   xmlns:inkscape="http://www.inkscape.org/namespaces/inkscape"
   width="2048"
   height="1024"
   id="svg2"
   version="1.1"
   inkscape:version="0.48.5 r10040"
   sodipodi:docname="竹尖.svg">
  <defs
     id="defs4" />
  <sodipodi:namedview
     id="base"
     pagecolor="#ffffff"
     bordercolor="#666666"
     borderopacity="1.0"
     inkscape:pageopacity="0.0"
     inkscape:pageshadow="2"
     inkscape:zoom="0.27633124"
     inkscape:cx="1385.4217"
     inkscape:cy="611.45018"
     inkscape:document-units="px"
     inkscape:current-layer="g4277"
     showgrid="true"
     showguides="true"
     inkscape:guide-bbox="true"
     inkscape:window-width="1366"
     inkscape:window-height="706"
     inkscape:window-x="-8"
     inkscape:window-y="-8"
     inkscape:window-maximized="1"
     objecttolerance="1"
     gridtolerance="1">
    <inkscape:grid
       type="xygrid"
       id="grid2985"
       empspacing="4"
       visible="true"
       enabled="true"
       snapvisiblegridlinesonly="true"
       spacingx="32px"
       spacingy="32px" />
    <sodipodi:guide
       orientation="1,0"
       position="1024,512"
       id="guide2987" />
  </sodipodi:namedview>
  <metadata
     id="metadata7">
    <rdf:RDF>
      <cc:Work
         rdf:about="">
        <dc:format>image/svg+xml</dc:format>
        <dc:type
           rdf:resource="http://purl.org/dc/dcmitype/StillImage" />
        <dc:title />
      </cc:Work>
    </rdf:RDF>
  </metadata>
  <g
     inkscape:groupmode="layer"
     id="layer2"
     inkscape:label="refer"
     style="display:none">
    <text
       transform="translate(0,-28.362183)"
       xml:space="preserve"
       style="font-size:64px;font-style:normal;font-weight:normal;line-height:125%;letter-spacing:0px;word-spacing:0px;fill:#e9afaf;fill-opacity:1;stroke:none;font-family:Sans;-inkscape-font-specification:Sans"
       x="64"
       y="808.36218"
       id="text2991"
       sodipodi:linespacing="125%"><tspan
         sodipodi:role="line"
         id="tspan2993"
         x="64"
         y="808.36218"
         style="font-size:900px;font-style:normal;font-variant:normal;font-weight:normal;font-stretch:normal;fill:#e9afaf;font-family:'经典特宋简';-inkscape-font-specification:'经典特宋简'">竹</tspan></text>
    <text
       transform="translate(0,-28.362183)"
       xml:space="preserve"
       style="font-size:900px;font-style:normal;font-weight:normal;line-height:125%;letter-spacing:0px;word-spacing:0px;fill:#e9afaf;fill-opacity:1;stroke:none;font-family:Sans"
       x="1092"
       y="796.36218"
       id="text2986"
       sodipodi:linespacing="125%"><tspan
         sodipodi:role="line"
         id="tspan2988"
         x="1092"
         y="796.36218"
         style="font-size:900px;font-style:normal;font-variant:normal;font-weight:normal;font-stretch:normal;fill:#e9afaf;font-family:'经典特宋简';-inkscape-font-specification:'经典特宋简'">尖</tspan></text>
  </g>
  <g
     inkscape:label="Layer 1"
     inkscape:groupmode="layer"
     id="layer1"
     transform="translate(0,-28.362183)"
     style="display:none">
    <path
       style="fill:#000000;fill-opacity:1;stroke:#000000;stroke-width:1px;stroke-linecap:butt;stroke-linejoin:miter;stroke-opacity:1"
       d="m 32,64 160,96 0,288 -160,96 z"
       id="path2988"
       inkscape:connector-curvature="0"
       transform="translate(0,28.362183)"
       sodipodi:nodetypes="ccccc" />
    <path
       style="fill:#000000;fill-opacity:1;stroke:#000000;stroke-width:1px;stroke-linecap:butt;stroke-linejoin:miter;stroke-opacity:1"
       d="m 224,252.36218 224,0 0,768.00002 -224,-96.00002 z"
       id="path2990"
       inkscape:connector-curvature="0"
       sodipodi:nodetypes="ccccc" />
    <path
       style="fill:#000000;fill-opacity:1;stroke:#000000;stroke-width:0.7175951px;stroke-linecap:butt;stroke-linejoin:miter;stroke-opacity:1"
       d="m 159.71768,252.36218 192.06775,0 70.25718,0.59465 57.78799,-0.59465 0,16.47236 -320.11292,0 z"
       id="path3760"
       inkscape:connector-curvature="0"
       sodipodi:nodetypes="ccccccc" />
    <path
       style="fill:#000000;fill-opacity:1;stroke:#000000;stroke-width:1px;stroke-linecap:butt;stroke-linejoin:miter;stroke-opacity:1"
       d="m 480,92.362183 160,95.999997 0,288 -160,96 z"
       id="path2988-1"
       inkscape:connector-curvature="0"
       sodipodi:nodetypes="ccccc" />
    <path
       style="fill:#000000;fill-opacity:1;stroke:#000000;stroke-width:0.7175951px;stroke-linecap:butt;stroke-linejoin:miter;stroke-opacity:1"
       d="m 575.85884,252.36218 256.09595,0 31.90405,-79.66881 96.14116,79.66881 0,16.47236 -384.14116,0 z"
       id="path3760-7"
       inkscape:connector-curvature="0"
       sodipodi:nodetypes="ccccccc" />
    <path
       style="fill:#000000;fill-opacity:1;stroke:#000000;stroke-width:1px;stroke-linecap:butt;stroke-linejoin:miter;stroke-opacity:1"
       d="m 672,252.36218 224,0 0,640 -224,128.00002 z"
       id="path2990-4"
       inkscape:connector-curvature="0"
       sodipodi:nodetypes="ccccc" />
    <path
       style="fill:#000000;fill-opacity:1;stroke:#000000;stroke-width:1px;stroke-linecap:butt;stroke-linejoin:miter;stroke-opacity:1"
       d="m 672,992 0,-128 -160,0 z"
       id="path3818"
       inkscape:connector-curvature="0"
       transform="translate(0,28.362183)"
       sodipodi:nodetypes="cccc" />
    <path
       style="fill:#000000;fill-opacity:1;stroke:#000000;stroke-width:1px;stroke-linecap:butt;stroke-linejoin:miter;stroke-opacity:1"
       d="m 1440,92.362183 192,127.999997 0,384 -192,0 z"
       id="path2988-1-0"
       inkscape:connector-curvature="0"
       sodipodi:nodetypes="ccccc" />
    <path
       style="fill:#000000;fill-opacity:1;stroke:#000000;stroke-width:0.7175951px;stroke-linecap:butt;stroke-linejoin:miter;stroke-opacity:1"
       d="m 1056,604.36218 832,0 32,-64 96.0452,64 0,16.47236 -960.0452,0 z"
       id="path3760-7-9"
       inkscape:connector-curvature="0"
       sodipodi:nodetypes="ccccccc" />
    <path
       style="fill:#000000;fill-opacity:1;stroke:#000000;stroke-width:1px;stroke-linecap:butt;stroke-linejoin:miter;stroke-opacity:1"
       d="m 1440,604.36218 192,0 c -32.9619,220.44433 -133.8225,369.50475 -544,416.00002 121.0038,-58.52246 335.4605,-149.27969 352,-416.00002 z"
       id="path2990-4-4"
       inkscape:connector-curvature="0"
       sodipodi:nodetypes="cccc" />
    <path
       style="fill:#000000;fill-opacity:1;stroke:#000000;stroke-width:1px;stroke-linecap:butt;stroke-linejoin:miter;stroke-opacity:1"
       d="m 1607.3125,576 c 74.527,312.27274 187.7813,385.03125 280.6875,416 0,-64 32,-128 128,-160 -115.0153,-23.97208 -249.9649,-67.90933 -392.625,-256 l -16.0625,0 z"
       transform="translate(0,28.362183)"
       id="path3908"
       inkscape:connector-curvature="0" />
    <path
       style="font-size:900px;font-style:normal;font-variant:normal;font-weight:normal;font-stretch:normal;line-height:125%;letter-spacing:0px;word-spacing:0px;fill:#000000;fill-opacity:1;stroke:none;display:inline;font-family:'经典特宋简';-inkscape-font-specification:'经典特宋简'"
       d="m 1711.3437,212.67468 c -5.86,6.1e-4 -9.0709,1.76623 -9.6563,5.28125 -0.5864,3.51623 0.5698,6.14904 3.5,7.90625 153.2214,57.34255 24.4867,273.86441 182.8126,250.5 18.1631,-2.3434 34.5695,-12.32776 49.2187,-29.90625 11.132,-12.89023 16.6867,-31.03085 16.6875,-54.46875 -1.7586,-52.73389 -36.8836,-97.84322 -105.4375,-135.34375 -43.946,-23.43691 -89.6647,-38.10877 -137.125,-43.96875 z"
       id="path4036"
       inkscape:connector-curvature="0"
       sodipodi:nodetypes="cccccccc" />
    <path
       style="fill:#000000;fill-opacity:1;stroke:#000000;stroke-width:1px;stroke-linecap:butt;stroke-linejoin:miter;stroke-opacity:1"
       d="m 1216,188.36218 160,96 c -8.2172,199.03337 -160,256 -256,256 64,-32 128,-160 96,-352 z"
       id="path4080"
       inkscape:connector-curvature="0"
       sodipodi:nodetypes="cccc" />
  </g>
  <g
     inkscape:groupmode="layer"
     id="layer3"
     inkscape:label="层"
     style="display:none">
    <path
       style="fill:#000000;fill-opacity:1;stroke:#000000;stroke-width:1px;stroke-linecap:butt;stroke-linejoin:miter;stroke-opacity:1"
       d="m 359.88991,180.02032 c -38.43642,-23.75502 -94.89914,-2.34951 -128,32 -89.43359,92.80726 -160,416 -160,416 0,0 158.26342,-169.11412 272.44365,-328.48528 24.849,-34.68389 53.99277,-95.7597 15.55635,-119.51472 z"
       id="path4112"
       inkscape:connector-curvature="0"
       sodipodi:nodetypes="zscsz" />
    <path
       style="fill:#000000;fill-opacity:1;stroke:#000000;stroke-width:0.47066915px;stroke-linecap:butt;stroke-linejoin:miter;stroke-opacity:1"
       d="m 358.13634,342.81419 c -26.40282,0.65121 -38.29745,19.10156 -34.85809,36.69174 9.29268,47.52609 136.01365,162.69373 136.01365,162.69373 -2.51634,0 -1.81474,-103.33807 -34.36297,-146.88595 -26.38096,-35.29639 -40.38978,-53.15074 -66.79259,-52.49952 z"
       id="path4112-7"
       inkscape:connector-curvature="0"
       sodipodi:nodetypes="zscsz" />
    <path
       style="fill:#000000;fill-opacity:1;stroke:#000000;stroke-width:0.67608076px;stroke-linecap:butt;stroke-linejoin:miter;stroke-opacity:1"
       d="m 755.9227,192 c -20.7297,24.19819 -20.12896,71.21319 -7.7528,103.21599 33.43846,86.46678 197.68796,205.60771 197.68796,205.60771 0,0 -60.46907,-217.95296 -119.33807,-282.7513 C 808.01904,197.70825 776.65235,167.80179 755.9227,192 z"
       id="path4112-6"
       inkscape:connector-curvature="0"
       sodipodi:nodetypes="zscsz" />
    <path
       style="fill:#000000;fill-opacity:1;stroke:#000000;stroke-width:0.96713251px;stroke-linecap:butt;stroke-linejoin:miter;stroke-opacity:1"
       d="m 307.56074,433.68013 c -42.92084,-2.27298 -80.18495,42.91273 -92.04602,88.19196 -32.04678,122.33778 57.15141,434.30461 57.15141,434.30461 0,0 107.65611,-279.46956 93.51891,-412.1767 -4.44288,-41.70583 -15.70347,-108.04689 -58.6243,-110.31987 z"
       id="path4112-1"
       inkscape:connector-curvature="0"
       sodipodi:nodetypes="zscsz" />
    <path
       style="fill:#000000;fill-opacity:1;stroke:#000000;stroke-width:1.01870108px;stroke-linecap:butt;stroke-linejoin:miter;stroke-opacity:1"
       d="M 708.36768,86.556661 C 672.47004,63.644713 622.56349,94.35047 594.40069,137.27381 518.30902,253.24631 470.81985,630.5096 470.81985,630.5096 c 0,0 203.36083,-248.49691 243.97434,-397.62465 12.76359,-46.86633 29.47112,-123.41635 -6.42651,-146.328289 z"
       id="path4112-4"
       inkscape:connector-curvature="0"
       sodipodi:nodetypes="zscsz" />
    <path
       style="fill:#000000;fill-opacity:1;stroke:#000000;stroke-width:1.18401361px;stroke-linecap:butt;stroke-linejoin:miter;stroke-opacity:1;display:inline"
       d="m 736,372.81125 c -53.84312,1.3101 -96.25947,58.68587 -106.92324,113.79345 -28.81187,148.89251 111.29895,512.56391 111.29895,512.56391 0,0 108.86497,-343.35846 79.01254,-500.29027 C 810.00651,449.55945 789.84312,371.50114 736,372.81125 z"
       id="path4112-2"
       inkscape:connector-curvature="0"
       sodipodi:nodetypes="zscsz" />
    <path
       style="fill:#000000;fill-opacity:1;stroke:#000000;stroke-width:1.07090139px;stroke-linecap:butt;stroke-linejoin:miter;stroke-opacity:1;display:inline"
       d="m 1582.1237,64 c -51.819,0.0707 -93.9095,48.02099 -105.4072,94.65833 -31.0654,126.00714 95.5139,437.85795 95.5139,437.85795 0,0 112.4434,-289.76121 87.2628,-423.7384 C 1651.5797,130.6729 1633.9429,63.929305 1582.1237,64 z"
       id="path4112-3"
       inkscape:connector-curvature="0"
       sodipodi:nodetypes="zscsz" />
    <path
       style="fill:#000000;fill-opacity:1;stroke:#000000;stroke-width:0.90132475px;stroke-linecap:butt;stroke-linejoin:miter;stroke-opacity:1;display:inline"
       d="m 1426.6922,200.60634 c -30.191,-21.644 -78.9011,1.66571 -109.1451,36.66807 C 1235.8322,331.84566 1152,651.11633 1152,651.11633 c 0,0 211.7718,-200.29665 264.7805,-325.23108 16.6588,-39.26312 40.1026,-103.63494 9.9117,-125.27891 z"
       id="path4112-22"
       inkscape:connector-curvature="0"
       sodipodi:nodetypes="zscsz" />
    <path
       style="fill:#000000;fill-opacity:1;stroke:#000000;stroke-width:0.81054097px;stroke-linecap:butt;stroke-linejoin:miter;stroke-opacity:1;display:inline"
       d="m 1706.0504,252.62867 c 33.9526,-14.09701 79.408,8.90355 104.344,39.31219 67.3736,82.15957 100.9069,341.0435 100.9069,341.0435 0,0 -181.7771,-177.73512 -215.3013,-280.98436 -10.5356,-32.44809 -23.9021,-85.2743 10.0504,-99.37133 z"
       id="path4112-16"
       inkscape:connector-curvature="0"
       sodipodi:nodetypes="zscsz" />
    <path
       style="fill:#000000;fill-opacity:1;stroke:#000000;stroke-width:0.96591264px;stroke-linecap:butt;stroke-linejoin:miter;stroke-opacity:1;display:inline"
       d="m 1596.6316,637.01296 c -24.4069,-34.83427 -79.6293,-30.92643 -119.503,-7.30809 -107.7324,63.8132 -278.7292,358.70156 -278.7292,358.70156 0,0 267.0101,-119.13876 354.1976,-226.17252 27.4007,-33.63749 68.4414,-90.38678 44.0346,-125.22095 z"
       id="path4112-5"
       inkscape:connector-curvature="0"
       sodipodi:nodetypes="zscsz" />
    <path
       style="fill:#000000;fill-opacity:1;stroke:#000000;stroke-width:0.70178378px;stroke-linecap:butt;stroke-linejoin:miter;stroke-opacity:1;display:inline"
       d="m 1600,779.33863 c 18.216,-25.63567 61.2888,-27.74468 92.857,-15.21584 85.2921,33.85115 225.0196,218.39213 225.0196,218.39213 0,0 -210.5167,-57.53418 -280.7876,-122.35523 -22.0842,-20.37127 -55.3049,-55.18541 -37.089,-80.82106 z"
       id="path4112-5-7"
       inkscape:connector-curvature="0"
       sodipodi:nodetypes="zscsz" />
    <path
       style="fill:#000000;fill-opacity:1;stroke:#000000;stroke-width:0.71439618px;stroke-linecap:butt;stroke-linejoin:miter;stroke-opacity:1;display:inline"
       d="m 1171.0575,717.16175 c 1.5441,-46.10739 46.251,-29.63267 108.9425,-32.97036 169.3825,-9.01788 633.9503,33.60654 633.9503,33.60654 0,0 -380.3618,33.8261 -573.4381,24.83419 -60.6781,-2.82587 -170.9988,20.63703 -169.4547,-25.47037 z"
       id="path4112-5-6"
       inkscape:connector-curvature="0"
       sodipodi:nodetypes="zscsz" />
    <path
       style="fill:#000000;fill-opacity:1;stroke:#000000;stroke-width:0.38270891px;stroke-linecap:butt;stroke-linejoin:miter;stroke-opacity:1;display:inline"
       d="m 2191.3165,797.49166 c 17.3761,-1.12572 25.2298,16.60643 22.9914,34.50834 -6.048,48.36808 -89.277,172.6009 -89.277,172.6009 0,0 0.1498,-110.31289 26.1099,-163.03583 8.1585,-16.5693 22.7997,-42.94764 40.1757,-44.07341 z"
       id="path4112-5-7-1"
       inkscape:connector-curvature="0"
       sodipodi:nodetypes="zscsz" />
    <path
       style="fill:#000000;fill-opacity:1;stroke:#000000;stroke-width:0.54949576px;stroke-linecap:butt;stroke-linejoin:miter;stroke-opacity:1;display:inline"
       d="m 2266,809.31923 c 14.234,-20.11377 97.1578,-14.16421 84.9405,9.41226 -102.1804,197.18411 107.5666,87.93897 147.8719,77.26851 -45.5191,54.07445 -204.3736,152.9746 -255.5115,40.77312 -26.1585,-57.3942 8.4652,-107.34014 22.6991,-127.45389 z"
       id="path4112-5-7-8"
       inkscape:connector-curvature="0"
       sodipodi:nodetypes="zscsz" />
  </g>
  <g
     style="display:inline"
     inkscape:label="层 复制"
     id="g4277"
     inkscape:groupmode="layer">
    <path
       sodipodi:nodetypes="zscsz"
       inkscape:connector-curvature="0"
       id="path4279"
       d="M 317.94741,181.86018 C 242.54477,128 252.06226,165.89625 242,220.27906 223.39572,320.82831 30.149023,583.96453 22.70766,579.72447 148.51795,500.95759 238,422.0129 306,304 c 24.10129,-41.8274 87.35005,-68.27964 11.94741,-122.13982 z"
       style="fill:#000000;fill-opacity:1;stroke:#000000;stroke-width:0.95415658px;stroke-linecap:butt;stroke-linejoin:miter;stroke-opacity:1" />
    <path
       sodipodi:nodetypes="zscsz"
       inkscape:connector-curvature="0"
       id="path4281"
       d="M 404.25208,474.79795 C 440.16147,483.49333 442.58028,427.63732 436,410.96569 418.22102,365.92137 284.67248,309.71376 284.67248,309.71376 c 0.88408,-0.73816 35.79376,51.99744 60.79852,95.13593 26.48378,45.69012 22.8717,61.25289 58.78108,69.94826 z"
       style="fill:#000000;fill-opacity:1;stroke:#000000;stroke-width:0.47066915px;stroke-linecap:butt;stroke-linejoin:miter;stroke-opacity:1" />
    <path
       sodipodi:nodetypes="zscsz"
       inkscape:connector-curvature="0"
       id="path4283"
       d="M 997.43149,370.96569 C 984,311.12977 963.6279,305.13398 932.76031,290.14929 849.36079,249.66283 608,268.41705 608,268.41705 c 0,0 220.75825,70.2849 310,131.58295 22.67863,15.57741 92.863,30.80161 79.43149,-29.03431 z"
       style="fill:#000000;fill-opacity:1;stroke:#000000;stroke-width:0.67608076px;stroke-linecap:butt;stroke-linejoin:miter;stroke-opacity:1" />
    <path
       sodipodi:nodetypes="scs"
       inkscape:connector-curvature="0"
       id="path4285"
       d="M 233.3686,882.96569 C 384,873.86539 304.29888,453.32435 256,427.75736 224.10751,632.48748 68.570585,892.92186 233.3686,882.96569 z"
       style="fill:#000000;fill-opacity:1;stroke:#000000;stroke-width:0.89169466px;stroke-linecap:butt;stroke-linejoin:miter;stroke-opacity:1" />
    <path
       sodipodi:nodetypes="sscss"
       inkscape:connector-curvature="0"
       id="path4287"
       d="M 680.26073,107.90591 C 533.77096,68 581.79125,94.268832 568.50779,136.83351 509.26951,326.65295 372.19592,622.75601 371.70903,614.96569 c 0,0 234.93613,-218.88663 295.23847,-361.19674 18.9512,-44.72376 111.05097,-119.23788 13.31323,-145.86304 z"
       style="fill:#000000;fill-opacity:1;stroke:#000000;stroke-width:1.01870108px;stroke-linecap:butt;stroke-linejoin:miter;stroke-opacity:1" />
    <path
       sodipodi:nodetypes="cccc"
       inkscape:connector-curvature="0"
       id="path4289"
       d="M 804.6649,840 C 884.85281,496.13257 655.21964,356.75131 655.21964,356.75131 659.62382,356.40181 783.15641,947.29949 482.82843,896 637.815,954.15379 796.05178,928 804.6649,840 z"
       style="fill:#000000;fill-opacity:1;stroke:#000000;stroke-width:1.18401361px;stroke-linecap:butt;stroke-linejoin:miter;stroke-opacity:1;display:inline" />
    <path
       sodipodi:nodetypes="zsscsz"
       inkscape:connector-curvature="0"
       id="path4291"
       d="m 1566.1237,83.222112 c -129.8763,-36.893588 -113.2216,8.597184 -98.2179,27.192218 4.3927,5.44423 9.5226,37.01313 10.5266,49.58567 23.7954,297.97074 72.3138,404.24888 77.798,384 0,0 65.1483,-178.50814 81.8345,-391.08132 3.5053,-44.65528 57.9351,-32.80298 -71.9412,-69.696568 z"
       style="fill:#000000;fill-opacity:1;stroke:#000000;stroke-width:0.99615943px;stroke-linecap:butt;stroke-linejoin:miter;stroke-opacity:1;display:inline" />
    <path
       sodipodi:nodetypes="scss"
       inkscape:connector-curvature="0"
       id="path4293"
       d="m 1273.6469,520.35689 c 20.6652,-65.3264 43.9486,-210.34203 143.0884,-296.35689 -18.2246,0 -252.3293,139.39949 -252.0063,218.68456 0.2582,63.35725 96.1708,117.96848 108.9179,77.67233 z"
       style="fill:#000000;fill-opacity:1;stroke:#000000;stroke-width:0.73764175px;stroke-linecap:butt;stroke-linejoin:miter;stroke-opacity:1;display:inline" />
    <path
       sodipodi:nodetypes="scss"
       inkscape:connector-curvature="0"
       id="path4297"
       d="m 1192.9023,923.61905 c 255.6426,50.01172 295.6191,-212.25008 335.4966,-355.3469 0,0 -101.0959,118.10759 -184.3989,211.9664 -48.2727,54.38962 -196.9545,134.40948 -151.0977,143.3805 z"
       style="fill:#000000;fill-opacity:1;stroke:#000000;stroke-width:0.88158929px;stroke-linecap:butt;stroke-linejoin:miter;stroke-opacity:1;display:inline" />
    <path
       sodipodi:nodetypes="cscc"
       inkscape:connector-curvature="0"
       id="path4299"
       d="M 1917.2157,915.16359 C 1898.3501,940.32508 1823.3108,961.95656 1824,928 c 1.1396,-56.14773 -196.9276,-229.35328 -219.3615,-224.07472 138.0978,13.24037 394.0066,90.82072 312.5772,211.23831 z"
       style="fill:#000000;fill-opacity:1;stroke:#000000;stroke-width:0.70178378px;stroke-linecap:butt;stroke-linejoin:miter;stroke-opacity:1;display:inline" />
    <path
       sodipodi:nodetypes="zscsz"
       inkscape:connector-curvature="0"
       id="path4301"
       d="m 1909.9343,646.52963 c 1.6545,-44.18821 2.3734,-39.24919 -62.2424,-34.88954 -169.2376,11.4185 -680.6504,35.52572 -680.6504,35.52572 0,0 380.3618,33.8261 573.4381,24.83419 60.6781,-2.82587 167.8002,18.71784 169.4547,-25.47037 z"
       style="fill:#000000;fill-opacity:1;stroke:#000000;stroke-width:0.71439618px;stroke-linecap:butt;stroke-linejoin:miter;stroke-opacity:1;display:inline" />
    <path
       sodipodi:nodetypes="zscsz"
       inkscape:connector-curvature="0"
       id="path4303"
       d="m 2184.1757,755.92659 c 17.3761,-1.12572 25.2298,16.60643 22.9914,34.50834 -6.048,48.36808 -89.277,172.6009 -89.277,172.6009 0,0 0.1498,-110.31289 26.1099,-163.03583 8.1585,-16.5693 22.7997,-42.94764 40.1757,-44.07341 z"
       style="fill:#000000;fill-opacity:1;stroke:#000000;stroke-width:0.38270891px;stroke-linecap:butt;stroke-linejoin:miter;stroke-opacity:1;display:inline" />
    <path
       sodipodi:nodetypes="zscsz"
       inkscape:connector-curvature="0"
       id="path4305"
       d="m 2258.8592,767.75416 c 14.234,-20.11377 97.1578,-14.16421 84.9405,9.41226 -102.1804,197.18411 107.5666,87.93897 147.8719,77.26851 -45.5191,54.07445 -204.3736,152.97457 -255.5115,40.77312 -26.1585,-57.3942 8.4652,-107.34014 22.6991,-127.45389 z"
       style="fill:#000000;fill-opacity:1;stroke:#000000;stroke-width:0.54949576px;stroke-linecap:butt;stroke-linejoin:miter;stroke-opacity:1;display:inline" />
    <path
       sodipodi:nodetypes="scss"
       inkscape:connector-curvature="0"
       id="path4293-9"
       d="M 1831.7723,507.10999 C 1842.0353,469.98669 1679.0475,231.6566 1698.4053,224 c 16.9864,0 219.3455,106.11582 251.5572,178.33991 24.8939,55.81668 -134.995,165.55676 -118.1902,104.77008 z"
       style="fill:#000000;fill-opacity:1;stroke:#000000;stroke-width:0.69604546px;stroke-linecap:butt;stroke-linejoin:miter;stroke-opacity:1;display:inline" />
  </g>
</svg>
